<?xml version="1.0" encoding="UTF-8"?>
<mxfile host="app.diagrams.net" agent="Mozilla/5.0 (Windows NT 10.0; Win64; x64) AppleWebKit/537.36 (KHTML, like Gecko) Chrome/140.0.0.0 Safari/537.36" version="28.2.5">
  <diagram name="PÃ¡gina-1" id="OckT843x-lJwrtBGM3gO">
    <mxGraphModel dx="3080" dy="1954" grid="1" gridSize="10" guides="1" tooltips="1" connect="1" arrows="1" fold="1" page="1" pageScale="1" pageWidth="827" pageHeight="1169" math="0" shadow="0">
      <root>
        <mxCell id="0" />
        <mxCell id="1" parent="0" />
        <mxCell id="jSK1wQsOqo6iw2RfOeqB-1" style="edgeStyle=orthogonalEdgeStyle;rounded=0;orthogonalLoop=1;jettySize=auto;html=1;exitX=1;exitY=0.3333333333333333;exitDx=0;exitDy=0;exitPerimeter=0;entryX=0;entryY=0.5;entryDx=0;entryDy=0;endArrow=none;endFill=0;" parent="1" source="jSK1wQsOqo6iw2RfOeqB-2" target="jSK1wQsOqo6iw2RfOeqB-4" edge="1">
          <mxGeometry relative="1" as="geometry" />
        </mxCell>
        <mxCell id="jSK1wQsOqo6iw2RfOeqB-2" value="Usuario" style="shape=umlActor;verticalLabelPosition=bottom;verticalAlign=top;html=1;outlineConnect=0;" parent="1" vertex="1">
          <mxGeometry x="-850" y="-70" width="30" height="60" as="geometry" />
        </mxCell>
        <mxCell id="jSK1wQsOqo6iw2RfOeqB-3" style="edgeStyle=orthogonalEdgeStyle;rounded=0;orthogonalLoop=1;jettySize=auto;html=1;exitX=0.5;exitY=1;exitDx=0;exitDy=0;" parent="1" source="jSK1wQsOqo6iw2RfOeqB-4" target="jSK1wQsOqo6iw2RfOeqB-5" edge="1">
          <mxGeometry relative="1" as="geometry" />
        </mxCell>
        <mxCell id="T_bKocLDF5SG0f0tNBpL-326" value="&amp;lt;Use&amp;gt;" style="edgeLabel;html=1;align=center;verticalAlign=middle;resizable=0;points=[];" parent="jSK1wQsOqo6iw2RfOeqB-3" connectable="0" vertex="1">
          <mxGeometry x="-0.53" y="-3" relative="1" as="geometry">
            <mxPoint x="3" as="offset" />
          </mxGeometry>
        </mxCell>
        <mxCell id="jSK1wQsOqo6iw2RfOeqB-4" value="Registrarse" style="ellipse;whiteSpace=wrap;html=1;aspect=fixed;" parent="1" vertex="1">
          <mxGeometry x="-730" y="-140" width="80" height="80" as="geometry" />
        </mxCell>
        <mxCell id="T_bKocLDF5SG0f0tNBpL-328" style="edgeStyle=orthogonalEdgeStyle;rounded=0;orthogonalLoop=1;jettySize=auto;html=1;exitX=1;exitY=0.5;exitDx=0;exitDy=0;endArrow=none;endFill=0;entryX=0.5;entryY=0.5;entryDx=0;entryDy=0;entryPerimeter=0;" parent="1" source="jSK1wQsOqo6iw2RfOeqB-5" target="jSK1wQsOqo6iw2RfOeqB-6" edge="1">
          <mxGeometry relative="1" as="geometry">
            <mxPoint x="-440" y="-50" as="targetPoint" />
          </mxGeometry>
        </mxCell>
        <mxCell id="Albroaq3FVYr9AdbzQTs-22" style="edgeStyle=orthogonalEdgeStyle;rounded=0;orthogonalLoop=1;jettySize=auto;html=1;exitX=0.5;exitY=1;exitDx=0;exitDy=0;entryX=0;entryY=0.5;entryDx=0;entryDy=0;" parent="1" source="jSK1wQsOqo6iw2RfOeqB-5" target="Albroaq3FVYr9AdbzQTs-18" edge="1">
          <mxGeometry relative="1" as="geometry" />
        </mxCell>
        <mxCell id="jSK1wQsOqo6iw2RfOeqB-5" value="IniciarSesion" style="ellipse;whiteSpace=wrap;html=1;aspect=fixed;" parent="1" vertex="1">
          <mxGeometry x="-730" y="-20" width="80" height="80" as="geometry" />
        </mxCell>
        <mxCell id="Albroaq3FVYr9AdbzQTs-26" style="edgeStyle=orthogonalEdgeStyle;rounded=0;orthogonalLoop=1;jettySize=auto;html=1;entryX=1;entryY=0.5;entryDx=0;entryDy=0;endArrow=none;endFill=0;" parent="1" source="jSK1wQsOqo6iw2RfOeqB-6" target="Albroaq3FVYr9AdbzQTs-23" edge="1">
          <mxGeometry relative="1" as="geometry">
            <Array as="points">
              <mxPoint x="-360" y="-40" />
              <mxPoint x="-360" y="440" />
            </Array>
          </mxGeometry>
        </mxCell>
        <mxCell id="jSK1wQsOqo6iw2RfOeqB-6" value="BD" style="shape=umlActor;verticalLabelPosition=bottom;verticalAlign=top;html=1;outlineConnect=0;" parent="1" vertex="1">
          <mxGeometry x="-440" y="-70" width="30" height="60" as="geometry" />
        </mxCell>
        <mxCell id="T_bKocLDF5SG0f0tNBpL-332" style="edgeStyle=orthogonalEdgeStyle;rounded=0;orthogonalLoop=1;jettySize=auto;html=1;exitX=0.5;exitY=0;exitDx=0;exitDy=0;exitPerimeter=0;" parent="1" source="jSK1wQsOqo6iw2RfOeqB-7" target="jSK1wQsOqo6iw2RfOeqB-2" edge="1">
          <mxGeometry relative="1" as="geometry">
            <Array as="points">
              <mxPoint x="-800" y="120" />
              <mxPoint x="-800" y="-10" />
            </Array>
          </mxGeometry>
        </mxCell>
        <mxCell id="Albroaq3FVYr9AdbzQTs-27" style="edgeStyle=orthogonalEdgeStyle;rounded=0;orthogonalLoop=1;jettySize=auto;html=1;exitX=1;exitY=0.3333333333333333;exitDx=0;exitDy=0;exitPerimeter=0;entryX=0;entryY=0.5;entryDx=0;entryDy=0;endArrow=none;endFill=0;" parent="1" source="jSK1wQsOqo6iw2RfOeqB-7" target="Albroaq3FVYr9AdbzQTs-23" edge="1">
          <mxGeometry relative="1" as="geometry" />
        </mxCell>
        <mxCell id="jSK1wQsOqo6iw2RfOeqB-7" value="Espectador" style="shape=umlActor;verticalLabelPosition=bottom;verticalAlign=top;html=1;outlineConnect=0;" parent="1" vertex="1">
          <mxGeometry x="-820" y="400" width="30" height="60" as="geometry" />
        </mxCell>
        <mxCell id="T_bKocLDF5SG0f0tNBpL-338" style="edgeStyle=orthogonalEdgeStyle;rounded=0;orthogonalLoop=1;jettySize=auto;html=1;exitX=0;exitY=1;exitDx=0;exitDy=0;exitPerimeter=0;entryX=0.5;entryY=0;entryDx=0;entryDy=0;endArrow=none;endFill=0;" parent="1" source="jSK1wQsOqo6iw2RfOeqB-8" target="Albroaq3FVYr9AdbzQTs-41" edge="1">
          <mxGeometry relative="1" as="geometry">
            <Array as="points">
              <mxPoint x="-980" y="1100" />
              <mxPoint x="-980" y="1135" />
              <mxPoint x="-920" y="1135" />
            </Array>
          </mxGeometry>
        </mxCell>
        <mxCell id="jSK1wQsOqo6iw2RfOeqB-8" value="Productor" style="shape=umlActor;verticalLabelPosition=bottom;verticalAlign=top;html=1;outlineConnect=0;" parent="1" vertex="1">
          <mxGeometry x="-940" y="1040" width="30" height="60" as="geometry" />
        </mxCell>
        <mxCell id="Albroaq3FVYr9AdbzQTs-14" style="edgeStyle=orthogonalEdgeStyle;rounded=0;orthogonalLoop=1;jettySize=auto;html=1;exitX=0.5;exitY=0;exitDx=0;exitDy=0;exitPerimeter=0;entryX=0;entryY=1;entryDx=0;entryDy=0;entryPerimeter=0;" parent="1" source="jSK1wQsOqo6iw2RfOeqB-9" target="jSK1wQsOqo6iw2RfOeqB-2" edge="1">
          <mxGeometry relative="1" as="geometry">
            <Array as="points">
              <mxPoint x="-890" y="120" />
              <mxPoint x="-890" y="-10" />
            </Array>
          </mxGeometry>
        </mxCell>
        <mxCell id="jSK1wQsOqo6iw2RfOeqB-9" value="Programador" style="shape=umlActor;verticalLabelPosition=bottom;verticalAlign=top;html=1;outlineConnect=0;" parent="1" vertex="1">
          <mxGeometry x="-910" y="120" width="30" height="60" as="geometry" />
        </mxCell>
        <mxCell id="Albroaq3FVYr9AdbzQTs-15" style="edgeStyle=orthogonalEdgeStyle;rounded=0;orthogonalLoop=1;jettySize=auto;html=1;exitX=0.5;exitY=0;exitDx=0;exitDy=0;exitPerimeter=0;entryX=0.5;entryY=0.5;entryDx=0;entryDy=0;entryPerimeter=0;" parent="1" source="jSK1wQsOqo6iw2RfOeqB-10" target="jSK1wQsOqo6iw2RfOeqB-2" edge="1">
          <mxGeometry relative="1" as="geometry">
            <Array as="points">
              <mxPoint x="-965" y="-40" />
            </Array>
          </mxGeometry>
        </mxCell>
        <mxCell id="jSK1wQsOqo6iw2RfOeqB-10" value="Admin" style="shape=umlActor;verticalLabelPosition=bottom;verticalAlign=top;html=1;outlineConnect=0;" parent="1" vertex="1">
          <mxGeometry x="-980" y="120" width="30" height="60" as="geometry" />
        </mxCell>
        <mxCell id="T_bKocLDF5SG0f0tNBpL-1" style="edgeStyle=orthogonalEdgeStyle;rounded=0;orthogonalLoop=1;jettySize=auto;html=1;exitX=1;exitY=1;exitDx=0;exitDy=0;entryX=1;entryY=0.5;entryDx=0;entryDy=0;" parent="1" edge="1">
          <mxGeometry relative="1" as="geometry">
            <mxPoint x="700" y="1118.2842712474612" as="sourcePoint" />
          </mxGeometry>
        </mxCell>
        <mxCell id="T_bKocLDF5SG0f0tNBpL-2" style="edgeStyle=orthogonalEdgeStyle;rounded=0;orthogonalLoop=1;jettySize=auto;html=1;exitX=0;exitY=0.5;exitDx=0;exitDy=0;entryX=1;entryY=0.5;entryDx=0;entryDy=0;" parent="1" source="T_bKocLDF5SG0f0tNBpL-3" target="T_bKocLDF5SG0f0tNBpL-5" edge="1">
          <mxGeometry relative="1" as="geometry" />
        </mxCell>
        <mxCell id="T_bKocLDF5SG0f0tNBpL-3" value="Sistema de Cadena de medios audiovisuales" style="ellipse;whiteSpace=wrap;html=1;aspect=fixed;" parent="1" vertex="1">
          <mxGeometry x="1298.7157287525388" y="1250" width="200" height="200" as="geometry" />
        </mxCell>
        <mxCell id="T_bKocLDF5SG0f0tNBpL-4" style="edgeStyle=orthogonalEdgeStyle;rounded=0;orthogonalLoop=1;jettySize=auto;html=1;exitX=1;exitY=0.25;exitDx=0;exitDy=0;entryX=0.003;entryY=0.423;entryDx=0;entryDy=0;entryPerimeter=0;" parent="1" source="T_bKocLDF5SG0f0tNBpL-5" target="T_bKocLDF5SG0f0tNBpL-3" edge="1">
          <mxGeometry relative="1" as="geometry" />
        </mxCell>
        <mxCell id="T_bKocLDF5SG0f0tNBpL-5" value="Empleado" style="rounded=0;whiteSpace=wrap;html=1;" parent="1" vertex="1">
          <mxGeometry x="1098.7157287525388" y="1320" width="120" height="60" as="geometry" />
        </mxCell>
        <mxCell id="T_bKocLDF5SG0f0tNBpL-6" style="edgeStyle=orthogonalEdgeStyle;rounded=0;orthogonalLoop=1;jettySize=auto;html=1;entryX=0;entryY=0.5;entryDx=0;entryDy=0;" parent="1" source="T_bKocLDF5SG0f0tNBpL-7" target="T_bKocLDF5SG0f0tNBpL-16" edge="1">
          <mxGeometry relative="1" as="geometry" />
        </mxCell>
        <mxCell id="T_bKocLDF5SG0f0tNBpL-7" value="Empleado" style="rounded=0;whiteSpace=wrap;html=1;" parent="1" vertex="1">
          <mxGeometry x="1938.7157287525388" y="1280" width="120" height="60" as="geometry" />
        </mxCell>
        <mxCell id="T_bKocLDF5SG0f0tNBpL-8" style="edgeStyle=orthogonalEdgeStyle;rounded=0;orthogonalLoop=1;jettySize=auto;html=1;" parent="1" source="T_bKocLDF5SG0f0tNBpL-16" target="T_bKocLDF5SG0f0tNBpL-17" edge="1">
          <mxGeometry relative="1" as="geometry" />
        </mxCell>
        <mxCell id="T_bKocLDF5SG0f0tNBpL-9" style="edgeStyle=orthogonalEdgeStyle;rounded=0;orthogonalLoop=1;jettySize=auto;html=1;exitX=1;exitY=0.5;exitDx=0;exitDy=0;entryX=1;entryY=0.5;entryDx=0;entryDy=0;" parent="1" source="T_bKocLDF5SG0f0tNBpL-16" target="T_bKocLDF5SG0f0tNBpL-19" edge="1">
          <mxGeometry relative="1" as="geometry" />
        </mxCell>
        <mxCell id="T_bKocLDF5SG0f0tNBpL-10" style="edgeStyle=orthogonalEdgeStyle;rounded=0;orthogonalLoop=1;jettySize=auto;html=1;exitX=1;exitY=0.5;exitDx=0;exitDy=0;entryX=1;entryY=0.5;entryDx=0;entryDy=0;" parent="1" source="T_bKocLDF5SG0f0tNBpL-16" target="T_bKocLDF5SG0f0tNBpL-20" edge="1">
          <mxGeometry relative="1" as="geometry" />
        </mxCell>
        <mxCell id="T_bKocLDF5SG0f0tNBpL-11" style="edgeStyle=orthogonalEdgeStyle;rounded=0;orthogonalLoop=1;jettySize=auto;html=1;exitX=1;exitY=0.5;exitDx=0;exitDy=0;entryX=1;entryY=0.5;entryDx=0;entryDy=0;" parent="1" source="T_bKocLDF5SG0f0tNBpL-16" target="T_bKocLDF5SG0f0tNBpL-22" edge="1">
          <mxGeometry relative="1" as="geometry" />
        </mxCell>
        <mxCell id="T_bKocLDF5SG0f0tNBpL-12" style="edgeStyle=orthogonalEdgeStyle;rounded=0;orthogonalLoop=1;jettySize=auto;html=1;exitX=1;exitY=0.5;exitDx=0;exitDy=0;entryX=1;entryY=0.5;entryDx=0;entryDy=0;" parent="1" source="T_bKocLDF5SG0f0tNBpL-16" target="T_bKocLDF5SG0f0tNBpL-23" edge="1">
          <mxGeometry relative="1" as="geometry" />
        </mxCell>
        <mxCell id="T_bKocLDF5SG0f0tNBpL-13" style="edgeStyle=orthogonalEdgeStyle;rounded=0;orthogonalLoop=1;jettySize=auto;html=1;exitX=1;exitY=0.5;exitDx=0;exitDy=0;entryX=1;entryY=0.5;entryDx=0;entryDy=0;" parent="1" source="T_bKocLDF5SG0f0tNBpL-16" target="T_bKocLDF5SG0f0tNBpL-24" edge="1">
          <mxGeometry relative="1" as="geometry" />
        </mxCell>
        <mxCell id="T_bKocLDF5SG0f0tNBpL-14" style="edgeStyle=orthogonalEdgeStyle;rounded=0;orthogonalLoop=1;jettySize=auto;html=1;exitX=1;exitY=0.5;exitDx=0;exitDy=0;entryX=1;entryY=0.5;entryDx=0;entryDy=0;" parent="1" source="T_bKocLDF5SG0f0tNBpL-16" target="T_bKocLDF5SG0f0tNBpL-25" edge="1">
          <mxGeometry relative="1" as="geometry" />
        </mxCell>
        <mxCell id="T_bKocLDF5SG0f0tNBpL-15" style="edgeStyle=orthogonalEdgeStyle;rounded=0;orthogonalLoop=1;jettySize=auto;html=1;exitX=1;exitY=0.5;exitDx=0;exitDy=0;entryX=1;entryY=0.5;entryDx=0;entryDy=0;" parent="1" source="T_bKocLDF5SG0f0tNBpL-16" target="T_bKocLDF5SG0f0tNBpL-26" edge="1">
          <mxGeometry relative="1" as="geometry" />
        </mxCell>
        <mxCell id="T_bKocLDF5SG0f0tNBpL-16" value="Iniciar Sesion" style="ellipse;whiteSpace=wrap;html=1;aspect=fixed;" parent="1" vertex="1">
          <mxGeometry x="2128.715728752539" y="1245" width="130" height="130" as="geometry" />
        </mxCell>
        <mxCell id="T_bKocLDF5SG0f0tNBpL-17" value="Gestionar Contenidos" style="ellipse;whiteSpace=wrap;html=1;aspect=fixed;" parent="1" vertex="1">
          <mxGeometry x="2128.715728752539" y="1450" width="130" height="130" as="geometry" />
        </mxCell>
        <mxCell id="T_bKocLDF5SG0f0tNBpL-18" style="edgeStyle=orthogonalEdgeStyle;rounded=0;orthogonalLoop=1;jettySize=auto;html=1;exitX=0.5;exitY=1;exitDx=0;exitDy=0;entryX=0.5;entryY=0;entryDx=0;entryDy=0;" parent="1" source="T_bKocLDF5SG0f0tNBpL-19" target="T_bKocLDF5SG0f0tNBpL-21" edge="1">
          <mxGeometry relative="1" as="geometry" />
        </mxCell>
        <mxCell id="T_bKocLDF5SG0f0tNBpL-19" value="Visualizar Parrillas" style="ellipse;whiteSpace=wrap;html=1;aspect=fixed;" parent="1" vertex="1">
          <mxGeometry x="2128.715728752539" y="1620" width="130" height="130" as="geometry" />
        </mxCell>
        <mxCell id="T_bKocLDF5SG0f0tNBpL-20" value="Gestionar aprobacion y programacion" style="ellipse;whiteSpace=wrap;html=1;aspect=fixed;" parent="1" vertex="1">
          <mxGeometry x="2128.715728752539" y="1960" width="130" height="130" as="geometry" />
        </mxCell>
        <mxCell id="T_bKocLDF5SG0f0tNBpL-21" value="Gestionar Parrillas" style="ellipse;whiteSpace=wrap;html=1;aspect=fixed;" parent="1" vertex="1">
          <mxGeometry x="2128.715728752539" y="1780" width="130" height="130" as="geometry" />
        </mxCell>
        <mxCell id="T_bKocLDF5SG0f0tNBpL-22" value="Controlar emision" style="ellipse;whiteSpace=wrap;html=1;aspect=fixed;" parent="1" vertex="1">
          <mxGeometry x="2128.715728752539" y="2120" width="130" height="130" as="geometry" />
        </mxCell>
        <mxCell id="T_bKocLDF5SG0f0tNBpL-23" value="Alertar errores" style="ellipse;whiteSpace=wrap;html=1;aspect=fixed;" parent="1" vertex="1">
          <mxGeometry x="2128.715728752539" y="2280" width="130" height="130" as="geometry" />
        </mxCell>
        <mxCell id="T_bKocLDF5SG0f0tNBpL-24" value="Gestionar ABM" style="ellipse;whiteSpace=wrap;html=1;aspect=fixed;" parent="1" vertex="1">
          <mxGeometry x="2128.715728752539" y="2450" width="130" height="130" as="geometry" />
        </mxCell>
        <mxCell id="T_bKocLDF5SG0f0tNBpL-25" value="Ver reportes" style="ellipse;whiteSpace=wrap;html=1;aspect=fixed;" parent="1" vertex="1">
          <mxGeometry x="2128.715728752539" y="2620" width="130" height="130" as="geometry" />
        </mxCell>
        <mxCell id="T_bKocLDF5SG0f0tNBpL-26" value="Gestionar posiciones" style="ellipse;whiteSpace=wrap;html=1;aspect=fixed;" parent="1" vertex="1">
          <mxGeometry x="2128.715728752539" y="2790" width="130" height="130" as="geometry" />
        </mxCell>
        <mxCell id="T_bKocLDF5SG0f0tNBpL-27" style="edgeStyle=orthogonalEdgeStyle;rounded=0;orthogonalLoop=1;jettySize=auto;html=1;entryX=0;entryY=0.5;entryDx=0;entryDy=0;" parent="1" source="T_bKocLDF5SG0f0tNBpL-28" target="T_bKocLDF5SG0f0tNBpL-30" edge="1">
          <mxGeometry relative="1" as="geometry" />
        </mxCell>
        <mxCell id="T_bKocLDF5SG0f0tNBpL-28" value="Empleado" style="rounded=0;whiteSpace=wrap;html=1;" parent="1" vertex="1">
          <mxGeometry x="3018.715728752539" y="1095" width="120" height="60" as="geometry" />
        </mxCell>
        <mxCell id="T_bKocLDF5SG0f0tNBpL-29" style="edgeStyle=orthogonalEdgeStyle;rounded=0;orthogonalLoop=1;jettySize=auto;html=1;exitX=0.5;exitY=1;exitDx=0;exitDy=0;entryX=0.5;entryY=0;entryDx=0;entryDy=0;" parent="1" source="T_bKocLDF5SG0f0tNBpL-30" target="T_bKocLDF5SG0f0tNBpL-36" edge="1">
          <mxGeometry relative="1" as="geometry" />
        </mxCell>
        <mxCell id="T_bKocLDF5SG0f0tNBpL-30" value="Iniciar Sesion" style="ellipse;whiteSpace=wrap;html=1;aspect=fixed;" parent="1" vertex="1">
          <mxGeometry x="3208.715728752539" y="1060" width="130" height="130" as="geometry" />
        </mxCell>
        <mxCell id="T_bKocLDF5SG0f0tNBpL-31" value="Ver parrilla semanal" style="ellipse;whiteSpace=wrap;html=1;aspect=fixed;" parent="1" vertex="1">
          <mxGeometry x="2828.715728752539" y="2450" width="130" height="130" as="geometry" />
        </mxCell>
        <mxCell id="T_bKocLDF5SG0f0tNBpL-32" value="Gestionar estado" style="ellipse;whiteSpace=wrap;html=1;aspect=fixed;" parent="1" vertex="1">
          <mxGeometry x="2828.715728752539" y="2000" width="130" height="130" as="geometry" />
        </mxCell>
        <mxCell id="T_bKocLDF5SG0f0tNBpL-33" style="edgeStyle=orthogonalEdgeStyle;rounded=0;orthogonalLoop=1;jettySize=auto;html=1;exitX=0;exitY=0.5;exitDx=0;exitDy=0;entryX=1;entryY=0.474;entryDx=0;entryDy=0;entryPerimeter=0;" parent="1" source="T_bKocLDF5SG0f0tNBpL-34" target="T_bKocLDF5SG0f0tNBpL-65" edge="1">
          <mxGeometry relative="1" as="geometry" />
        </mxCell>
        <mxCell id="T_bKocLDF5SG0f0tNBpL-34" value="Mover programa&amp;nbsp;" style="ellipse;whiteSpace=wrap;html=1;aspect=fixed;" parent="1" vertex="1">
          <mxGeometry x="3208.715728752539" y="1678" width="130" height="130" as="geometry" />
        </mxCell>
        <mxCell id="T_bKocLDF5SG0f0tNBpL-35" style="edgeStyle=orthogonalEdgeStyle;rounded=0;orthogonalLoop=1;jettySize=auto;html=1;" parent="1" source="T_bKocLDF5SG0f0tNBpL-113" target="T_bKocLDF5SG0f0tNBpL-50" edge="1">
          <mxGeometry relative="1" as="geometry" />
        </mxCell>
        <mxCell id="T_bKocLDF5SG0f0tNBpL-36" value="Identificar usuario" style="ellipse;whiteSpace=wrap;html=1;aspect=fixed;" parent="1" vertex="1">
          <mxGeometry x="3208.715728752539" y="1220" width="130" height="130" as="geometry" />
        </mxCell>
        <mxCell id="T_bKocLDF5SG0f0tNBpL-37" value="" style="endArrow=none;html=1;rounded=0;" parent="1" edge="1">
          <mxGeometry width="50" height="50" relative="1" as="geometry">
            <mxPoint x="3503.715728752539" y="1254.8400000000001" as="sourcePoint" />
            <mxPoint x="3583.715728752539" y="1255" as="targetPoint" />
            <Array as="points">
              <mxPoint x="3503.715728752539" y="1254.8400000000001" />
            </Array>
          </mxGeometry>
        </mxCell>
        <mxCell id="T_bKocLDF5SG0f0tNBpL-38" value="" style="endArrow=none;html=1;rounded=0;" parent="1" edge="1">
          <mxGeometry width="50" height="50" relative="1" as="geometry">
            <mxPoint x="3503.715728752539" y="1275" as="sourcePoint" />
            <mxPoint x="3583.715728752539" y="1275.1599999999999" as="targetPoint" />
            <Array as="points">
              <mxPoint x="3503.715728752539" y="1275" />
            </Array>
          </mxGeometry>
        </mxCell>
        <mxCell id="T_bKocLDF5SG0f0tNBpL-39" style="edgeStyle=orthogonalEdgeStyle;rounded=0;orthogonalLoop=1;jettySize=auto;html=1;entryX=1;entryY=0.5;entryDx=0;entryDy=0;" parent="1" source="T_bKocLDF5SG0f0tNBpL-94" target="T_bKocLDF5SG0f0tNBpL-36" edge="1">
          <mxGeometry relative="1" as="geometry" />
        </mxCell>
        <mxCell id="T_bKocLDF5SG0f0tNBpL-40" style="edgeStyle=orthogonalEdgeStyle;rounded=0;orthogonalLoop=1;jettySize=auto;html=1;exitX=0.5;exitY=1;exitDx=0;exitDy=0;" parent="1" source="T_bKocLDF5SG0f0tNBpL-44" edge="1">
          <mxGeometry relative="1" as="geometry">
            <mxPoint x="2898.715728752539" y="1760" as="targetPoint" />
          </mxGeometry>
        </mxCell>
        <mxCell id="T_bKocLDF5SG0f0tNBpL-41" style="edgeStyle=orthogonalEdgeStyle;rounded=0;orthogonalLoop=1;jettySize=auto;html=1;exitX=0;exitY=0.5;exitDx=0;exitDy=0;entryX=0;entryY=0.5;entryDx=0;entryDy=0;" parent="1" source="T_bKocLDF5SG0f0tNBpL-44" target="T_bKocLDF5SG0f0tNBpL-51" edge="1">
          <mxGeometry relative="1" as="geometry" />
        </mxCell>
        <mxCell id="T_bKocLDF5SG0f0tNBpL-42" style="edgeStyle=orthogonalEdgeStyle;rounded=0;orthogonalLoop=1;jettySize=auto;html=1;exitX=0;exitY=0.5;exitDx=0;exitDy=0;entryX=0;entryY=0.5;entryDx=0;entryDy=0;" parent="1" source="T_bKocLDF5SG0f0tNBpL-44" target="T_bKocLDF5SG0f0tNBpL-32" edge="1">
          <mxGeometry relative="1" as="geometry">
            <mxPoint x="2798.715728752539" y="2000" as="targetPoint" />
          </mxGeometry>
        </mxCell>
        <mxCell id="T_bKocLDF5SG0f0tNBpL-43" style="edgeStyle=orthogonalEdgeStyle;rounded=0;orthogonalLoop=1;jettySize=auto;html=1;exitX=0;exitY=0.5;exitDx=0;exitDy=0;entryX=0;entryY=0.5;entryDx=0;entryDy=0;" parent="1" source="T_bKocLDF5SG0f0tNBpL-44" target="T_bKocLDF5SG0f0tNBpL-31" edge="1">
          <mxGeometry relative="1" as="geometry" />
        </mxCell>
        <mxCell id="T_bKocLDF5SG0f0tNBpL-44" value="Productor/Editor" style="rounded=0;whiteSpace=wrap;html=1;" parent="1" vertex="1">
          <mxGeometry x="2843.715728752539" y="1570" width="120" height="60" as="geometry" />
        </mxCell>
        <mxCell id="T_bKocLDF5SG0f0tNBpL-45" style="edgeStyle=orthogonalEdgeStyle;rounded=0;orthogonalLoop=1;jettySize=auto;html=1;exitX=0.5;exitY=1;exitDx=0;exitDy=0;entryX=0.5;entryY=0;entryDx=0;entryDy=0;" parent="1" source="T_bKocLDF5SG0f0tNBpL-48" target="T_bKocLDF5SG0f0tNBpL-34" edge="1">
          <mxGeometry relative="1" as="geometry" />
        </mxCell>
        <mxCell id="T_bKocLDF5SG0f0tNBpL-46" style="edgeStyle=orthogonalEdgeStyle;rounded=0;orthogonalLoop=1;jettySize=auto;html=1;exitX=0;exitY=0.5;exitDx=0;exitDy=0;entryX=0;entryY=0.5;entryDx=0;entryDy=0;" parent="1" source="T_bKocLDF5SG0f0tNBpL-48" target="T_bKocLDF5SG0f0tNBpL-72" edge="1">
          <mxGeometry relative="1" as="geometry" />
        </mxCell>
        <mxCell id="T_bKocLDF5SG0f0tNBpL-47" style="edgeStyle=orthogonalEdgeStyle;rounded=0;orthogonalLoop=1;jettySize=auto;html=1;exitX=0;exitY=0.5;exitDx=0;exitDy=0;entryX=0;entryY=0.5;entryDx=0;entryDy=0;" parent="1" source="T_bKocLDF5SG0f0tNBpL-48" target="T_bKocLDF5SG0f0tNBpL-104" edge="1">
          <mxGeometry relative="1" as="geometry" />
        </mxCell>
        <mxCell id="T_bKocLDF5SG0f0tNBpL-48" value="Programador" style="rounded=0;whiteSpace=wrap;html=1;" parent="1" vertex="1">
          <mxGeometry x="3213.715728752539" y="1570" width="120" height="60" as="geometry" />
        </mxCell>
        <mxCell id="T_bKocLDF5SG0f0tNBpL-49" style="edgeStyle=orthogonalEdgeStyle;rounded=0;orthogonalLoop=1;jettySize=auto;html=1;exitX=0.5;exitY=1;exitDx=0;exitDy=0;" parent="1" source="T_bKocLDF5SG0f0tNBpL-50" target="T_bKocLDF5SG0f0tNBpL-78" edge="1">
          <mxGeometry relative="1" as="geometry" />
        </mxCell>
        <mxCell id="T_bKocLDF5SG0f0tNBpL-50" value="Administrador" style="rounded=0;whiteSpace=wrap;html=1;" parent="1" vertex="1">
          <mxGeometry x="3638.715728752539" y="1570" width="120" height="60" as="geometry" />
        </mxCell>
        <mxCell id="T_bKocLDF5SG0f0tNBpL-51" value="Gestionar contenido" style="ellipse;whiteSpace=wrap;html=1;aspect=fixed;" parent="1" vertex="1">
          <mxGeometry x="2828.715728752539" y="1763" width="130" height="130" as="geometry" />
        </mxCell>
        <mxCell id="T_bKocLDF5SG0f0tNBpL-52" value="2" style="text;html=1;align=center;verticalAlign=middle;resizable=0;points=[];autosize=1;strokeColor=none;fillColor=none;" parent="1" vertex="1">
          <mxGeometry x="2878.715728752539" y="2460" width="30" height="30" as="geometry" />
        </mxCell>
        <mxCell id="T_bKocLDF5SG0f0tNBpL-53" value="" style="endArrow=none;html=1;rounded=0;" parent="1" edge="1">
          <mxGeometry width="50" height="50" relative="1" as="geometry">
            <mxPoint x="3018.715728752539" y="1729.3000000000002" as="sourcePoint" />
            <mxPoint x="3098.715728752539" y="1729.46" as="targetPoint" />
            <Array as="points">
              <mxPoint x="3018.715728752539" y="1729.3000000000002" />
            </Array>
          </mxGeometry>
        </mxCell>
        <mxCell id="T_bKocLDF5SG0f0tNBpL-54" value="" style="endArrow=none;html=1;rounded=0;" parent="1" edge="1">
          <mxGeometry width="50" height="50" relative="1" as="geometry">
            <mxPoint x="3018.715728752539" y="1749.46" as="sourcePoint" />
            <mxPoint x="3098.715728752539" y="1749.62" as="targetPoint" />
            <Array as="points">
              <mxPoint x="3018.715728752539" y="1749.46" />
            </Array>
          </mxGeometry>
        </mxCell>
        <mxCell id="T_bKocLDF5SG0f0tNBpL-55" style="edgeStyle=orthogonalEdgeStyle;rounded=0;orthogonalLoop=1;jettySize=auto;html=1;entryX=1;entryY=0.5;entryDx=0;entryDy=0;" parent="1" source="T_bKocLDF5SG0f0tNBpL-57" target="T_bKocLDF5SG0f0tNBpL-51" edge="1">
          <mxGeometry relative="1" as="geometry">
            <Array as="points">
              <mxPoint x="3058.715728752539" y="1905" />
            </Array>
          </mxGeometry>
        </mxCell>
        <mxCell id="T_bKocLDF5SG0f0tNBpL-56" style="edgeStyle=orthogonalEdgeStyle;rounded=0;orthogonalLoop=1;jettySize=auto;html=1;entryX=1;entryY=0;entryDx=0;entryDy=0;" parent="1" source="T_bKocLDF5SG0f0tNBpL-57" target="T_bKocLDF5SG0f0tNBpL-289" edge="1">
          <mxGeometry relative="1" as="geometry">
            <Array as="points">
              <mxPoint x="3058.715728752539" y="1650" />
              <mxPoint x="2509.715728752539" y="1650" />
            </Array>
          </mxGeometry>
        </mxCell>
        <mxCell id="T_bKocLDF5SG0f0tNBpL-57" value="CONTENIDOS" style="text;html=1;align=center;verticalAlign=middle;resizable=0;points=[];autosize=1;strokeColor=none;fillColor=none;" parent="1" vertex="1">
          <mxGeometry x="3008.715728752539" y="1728" width="100" height="30" as="geometry" />
        </mxCell>
        <mxCell id="T_bKocLDF5SG0f0tNBpL-58" value="" style="endArrow=none;html=1;rounded=0;" parent="1" edge="1">
          <mxGeometry width="50" height="50" relative="1" as="geometry">
            <mxPoint x="2988.715728752539" y="2040" as="sourcePoint" />
            <mxPoint x="3068.715728752539" y="2040.1599999999999" as="targetPoint" />
            <Array as="points">
              <mxPoint x="2988.715728752539" y="2040" />
            </Array>
          </mxGeometry>
        </mxCell>
        <mxCell id="T_bKocLDF5SG0f0tNBpL-59" value="" style="endArrow=none;html=1;rounded=0;" parent="1" edge="1">
          <mxGeometry width="50" height="50" relative="1" as="geometry">
            <mxPoint x="2988.715728752539" y="2060.16" as="sourcePoint" />
            <mxPoint x="3068.715728752539" y="2060.32" as="targetPoint" />
            <Array as="points">
              <mxPoint x="2988.715728752539" y="2060.16" />
            </Array>
          </mxGeometry>
        </mxCell>
        <mxCell id="T_bKocLDF5SG0f0tNBpL-60" style="edgeStyle=orthogonalEdgeStyle;rounded=0;orthogonalLoop=1;jettySize=auto;html=1;" parent="1" source="T_bKocLDF5SG0f0tNBpL-61" target="T_bKocLDF5SG0f0tNBpL-32" edge="1">
          <mxGeometry relative="1" as="geometry" />
        </mxCell>
        <mxCell id="T_bKocLDF5SG0f0tNBpL-61" value="ESTADOS" style="text;html=1;align=center;verticalAlign=middle;resizable=0;points=[];autosize=1;strokeColor=none;fillColor=none;" parent="1" vertex="1">
          <mxGeometry x="2988.715728752539" y="2038" width="80" height="30" as="geometry" />
        </mxCell>
        <mxCell id="T_bKocLDF5SG0f0tNBpL-62" value="" style="endArrow=none;html=1;rounded=0;" parent="1" edge="1">
          <mxGeometry width="50" height="50" relative="1" as="geometry">
            <mxPoint x="3023.715728752539" y="2500" as="sourcePoint" />
            <mxPoint x="3093.715728752539" y="2500" as="targetPoint" />
          </mxGeometry>
        </mxCell>
        <mxCell id="T_bKocLDF5SG0f0tNBpL-63" value="" style="endArrow=none;html=1;rounded=0;" parent="1" edge="1">
          <mxGeometry width="50" height="50" relative="1" as="geometry">
            <mxPoint x="3023.715728752539" y="2520" as="sourcePoint" />
            <mxPoint x="3093.715728752539" y="2520" as="targetPoint" />
          </mxGeometry>
        </mxCell>
        <mxCell id="T_bKocLDF5SG0f0tNBpL-64" style="edgeStyle=orthogonalEdgeStyle;rounded=0;orthogonalLoop=1;jettySize=auto;html=1;entryX=1;entryY=0.5;entryDx=0;entryDy=0;" parent="1" source="T_bKocLDF5SG0f0tNBpL-65" target="T_bKocLDF5SG0f0tNBpL-31" edge="1">
          <mxGeometry relative="1" as="geometry" />
        </mxCell>
        <mxCell id="T_bKocLDF5SG0f0tNBpL-65" value="PARRILLA" style="text;html=1;align=center;verticalAlign=middle;resizable=0;points=[];autosize=1;strokeColor=none;fillColor=none;" parent="1" vertex="1">
          <mxGeometry x="3018.715728752539" y="2500" width="80" height="30" as="geometry" />
        </mxCell>
        <mxCell id="T_bKocLDF5SG0f0tNBpL-66" value="" style="endArrow=none;html=1;rounded=0;" parent="1" edge="1">
          <mxGeometry width="50" height="50" relative="1" as="geometry">
            <mxPoint x="3388.715728752539" y="1699.3000000000002" as="sourcePoint" />
            <mxPoint x="3468.715728752539" y="1699.46" as="targetPoint" />
            <Array as="points">
              <mxPoint x="3388.715728752539" y="1699.3000000000002" />
            </Array>
          </mxGeometry>
        </mxCell>
        <mxCell id="T_bKocLDF5SG0f0tNBpL-67" value="" style="endArrow=none;html=1;rounded=0;" parent="1" edge="1">
          <mxGeometry width="50" height="50" relative="1" as="geometry">
            <mxPoint x="3388.715728752539" y="1719.46" as="sourcePoint" />
            <mxPoint x="3468.715728752539" y="1719.62" as="targetPoint" />
            <Array as="points">
              <mxPoint x="3388.715728752539" y="1719.46" />
            </Array>
          </mxGeometry>
        </mxCell>
        <mxCell id="T_bKocLDF5SG0f0tNBpL-68" style="edgeStyle=orthogonalEdgeStyle;rounded=0;orthogonalLoop=1;jettySize=auto;html=1;" parent="1" source="T_bKocLDF5SG0f0tNBpL-70" target="T_bKocLDF5SG0f0tNBpL-34" edge="1">
          <mxGeometry relative="1" as="geometry" />
        </mxCell>
        <mxCell id="T_bKocLDF5SG0f0tNBpL-69" style="edgeStyle=orthogonalEdgeStyle;rounded=0;orthogonalLoop=1;jettySize=auto;html=1;entryX=0;entryY=1;entryDx=0;entryDy=0;" parent="1" source="T_bKocLDF5SG0f0tNBpL-70" target="T_bKocLDF5SG0f0tNBpL-81" edge="1">
          <mxGeometry relative="1" as="geometry">
            <Array as="points">
              <mxPoint x="3408.715728752539" y="2111" />
            </Array>
          </mxGeometry>
        </mxCell>
        <mxCell id="T_bKocLDF5SG0f0tNBpL-70" value="PROGRAMA" style="text;html=1;align=center;verticalAlign=middle;resizable=0;points=[];autosize=1;strokeColor=none;fillColor=none;" parent="1" vertex="1">
          <mxGeometry x="3383.715728752539" y="1698" width="90" height="30" as="geometry" />
        </mxCell>
        <mxCell id="T_bKocLDF5SG0f0tNBpL-71" style="edgeStyle=orthogonalEdgeStyle;rounded=0;orthogonalLoop=1;jettySize=auto;html=1;" parent="1" source="T_bKocLDF5SG0f0tNBpL-72" target="T_bKocLDF5SG0f0tNBpL-103" edge="1">
          <mxGeometry relative="1" as="geometry" />
        </mxCell>
        <mxCell id="T_bKocLDF5SG0f0tNBpL-72" value="Programar emision" style="ellipse;whiteSpace=wrap;html=1;aspect=fixed;" parent="1" vertex="1">
          <mxGeometry x="3208.715728752539" y="1820" width="130" height="130" as="geometry" />
        </mxCell>
        <mxCell id="T_bKocLDF5SG0f0tNBpL-73" style="edgeStyle=orthogonalEdgeStyle;rounded=0;orthogonalLoop=1;jettySize=auto;html=1;exitX=0;exitY=0.5;exitDx=0;exitDy=0;entryX=0;entryY=0.5;entryDx=0;entryDy=0;" parent="1" source="T_bKocLDF5SG0f0tNBpL-78" target="T_bKocLDF5SG0f0tNBpL-83" edge="1">
          <mxGeometry relative="1" as="geometry" />
        </mxCell>
        <mxCell id="T_bKocLDF5SG0f0tNBpL-74" style="edgeStyle=orthogonalEdgeStyle;rounded=0;orthogonalLoop=1;jettySize=auto;html=1;exitX=0;exitY=0.5;exitDx=0;exitDy=0;entryX=0;entryY=0.5;entryDx=0;entryDy=0;" parent="1" source="T_bKocLDF5SG0f0tNBpL-78" target="T_bKocLDF5SG0f0tNBpL-81" edge="1">
          <mxGeometry relative="1" as="geometry" />
        </mxCell>
        <mxCell id="T_bKocLDF5SG0f0tNBpL-75" style="edgeStyle=orthogonalEdgeStyle;rounded=0;orthogonalLoop=1;jettySize=auto;html=1;exitX=0;exitY=0.5;exitDx=0;exitDy=0;entryX=0;entryY=0.5;entryDx=0;entryDy=0;" parent="1" source="T_bKocLDF5SG0f0tNBpL-78" target="T_bKocLDF5SG0f0tNBpL-85" edge="1">
          <mxGeometry relative="1" as="geometry" />
        </mxCell>
        <mxCell id="T_bKocLDF5SG0f0tNBpL-76" style="edgeStyle=orthogonalEdgeStyle;rounded=0;orthogonalLoop=1;jettySize=auto;html=1;exitX=0;exitY=0.5;exitDx=0;exitDy=0;entryX=0;entryY=0.5;entryDx=0;entryDy=0;" parent="1" source="T_bKocLDF5SG0f0tNBpL-78" target="T_bKocLDF5SG0f0tNBpL-87" edge="1">
          <mxGeometry relative="1" as="geometry" />
        </mxCell>
        <mxCell id="T_bKocLDF5SG0f0tNBpL-77" style="edgeStyle=orthogonalEdgeStyle;rounded=0;orthogonalLoop=1;jettySize=auto;html=1;exitX=0;exitY=0.5;exitDx=0;exitDy=0;entryX=0;entryY=0.5;entryDx=0;entryDy=0;" parent="1" source="T_bKocLDF5SG0f0tNBpL-78" target="T_bKocLDF5SG0f0tNBpL-79" edge="1">
          <mxGeometry relative="1" as="geometry" />
        </mxCell>
        <mxCell id="T_bKocLDF5SG0f0tNBpL-78" value="Ingresar Menu ABM" style="ellipse;whiteSpace=wrap;html=1;aspect=fixed;" parent="1" vertex="1">
          <mxGeometry x="3633.715728752539" y="1698" width="130" height="130" as="geometry" />
        </mxCell>
        <mxCell id="T_bKocLDF5SG0f0tNBpL-79" value="Reportes de audiencia" style="ellipse;whiteSpace=wrap;html=1;aspect=fixed;" parent="1" vertex="1">
          <mxGeometry x="3638.715728752539" y="2460" width="130" height="130" as="geometry" />
        </mxCell>
        <mxCell id="T_bKocLDF5SG0f0tNBpL-80" style="edgeStyle=orthogonalEdgeStyle;rounded=0;orthogonalLoop=1;jettySize=auto;html=1;exitX=0;exitY=0;exitDx=0;exitDy=0;entryX=1.008;entryY=0.559;entryDx=0;entryDy=0;entryPerimeter=0;" parent="1" source="T_bKocLDF5SG0f0tNBpL-81" target="T_bKocLDF5SG0f0tNBpL-70" edge="1">
          <mxGeometry relative="1" as="geometry" />
        </mxCell>
        <mxCell id="T_bKocLDF5SG0f0tNBpL-81" value="Gestionar Programas" style="ellipse;whiteSpace=wrap;html=1;aspect=fixed;" parent="1" vertex="1">
          <mxGeometry x="3638.715728752539" y="2000" width="130" height="130" as="geometry" />
        </mxCell>
        <mxCell id="T_bKocLDF5SG0f0tNBpL-82" style="edgeStyle=orthogonalEdgeStyle;rounded=0;orthogonalLoop=1;jettySize=auto;html=1;exitX=1;exitY=0.5;exitDx=0;exitDy=0;" parent="1" source="T_bKocLDF5SG0f0tNBpL-83" target="T_bKocLDF5SG0f0tNBpL-108" edge="1">
          <mxGeometry relative="1" as="geometry" />
        </mxCell>
        <mxCell id="T_bKocLDF5SG0f0tNBpL-83" value="Gestionar Segmentos" style="ellipse;whiteSpace=wrap;html=1;aspect=fixed;" parent="1" vertex="1">
          <mxGeometry x="3638.715728752539" y="1850" width="130" height="130" as="geometry" />
        </mxCell>
        <mxCell id="T_bKocLDF5SG0f0tNBpL-84" style="edgeStyle=orthogonalEdgeStyle;rounded=0;orthogonalLoop=1;jettySize=auto;html=1;entryX=1.044;entryY=0.367;entryDx=0;entryDy=0;entryPerimeter=0;" parent="1" source="T_bKocLDF5SG0f0tNBpL-85" target="T_bKocLDF5SG0f0tNBpL-94" edge="1">
          <mxGeometry relative="1" as="geometry">
            <Array as="points">
              <mxPoint x="3968.715728752539" y="2205" />
              <mxPoint x="3968.715728752539" y="1280" />
              <mxPoint x="3592.715728752539" y="1280" />
            </Array>
          </mxGeometry>
        </mxCell>
        <mxCell id="T_bKocLDF5SG0f0tNBpL-85" value="Gestionar Usuarios" style="ellipse;whiteSpace=wrap;html=1;aspect=fixed;" parent="1" vertex="1">
          <mxGeometry x="3638.715728752539" y="2140" width="130" height="130" as="geometry" />
        </mxCell>
        <mxCell id="T_bKocLDF5SG0f0tNBpL-86" style="edgeStyle=orthogonalEdgeStyle;rounded=0;orthogonalLoop=1;jettySize=auto;html=1;" parent="1" source="T_bKocLDF5SG0f0tNBpL-87" target="T_bKocLDF5SG0f0tNBpL-98" edge="1">
          <mxGeometry relative="1" as="geometry" />
        </mxCell>
        <mxCell id="T_bKocLDF5SG0f0tNBpL-87" value="Gestionar Plataformas" style="ellipse;whiteSpace=wrap;html=1;aspect=fixed;" parent="1" vertex="1">
          <mxGeometry x="3638.715728752539" y="2280" width="130" height="130" as="geometry" />
        </mxCell>
        <mxCell id="T_bKocLDF5SG0f0tNBpL-88" value="" style="endArrow=none;html=1;rounded=0;" parent="1" edge="1">
          <mxGeometry width="50" height="50" relative="1" as="geometry">
            <mxPoint x="3823.715728752539" y="2600" as="sourcePoint" />
            <mxPoint x="3903.715728752539" y="2600.16" as="targetPoint" />
            <Array as="points">
              <mxPoint x="3823.715728752539" y="2600" />
            </Array>
          </mxGeometry>
        </mxCell>
        <mxCell id="T_bKocLDF5SG0f0tNBpL-89" value="" style="endArrow=none;html=1;rounded=0;" parent="1" edge="1">
          <mxGeometry width="50" height="50" relative="1" as="geometry">
            <mxPoint x="3823.715728752539" y="2630" as="sourcePoint" />
            <mxPoint x="3903.715728752539" y="2630.16" as="targetPoint" />
            <Array as="points">
              <mxPoint x="3823.715728752539" y="2630" />
            </Array>
          </mxGeometry>
        </mxCell>
        <mxCell id="T_bKocLDF5SG0f0tNBpL-90" style="edgeStyle=orthogonalEdgeStyle;rounded=0;orthogonalLoop=1;jettySize=auto;html=1;entryX=1;entryY=0.5;entryDx=0;entryDy=0;" parent="1" source="T_bKocLDF5SG0f0tNBpL-91" target="T_bKocLDF5SG0f0tNBpL-79" edge="1">
          <mxGeometry relative="1" as="geometry" />
        </mxCell>
        <mxCell id="T_bKocLDF5SG0f0tNBpL-91" value="REPORTES" style="text;html=1;align=center;verticalAlign=middle;resizable=0;points=[];autosize=1;strokeColor=none;fillColor=none;" parent="1" vertex="1">
          <mxGeometry x="3818.715728752539" y="2600" width="90" height="30" as="geometry" />
        </mxCell>
        <mxCell id="T_bKocLDF5SG0f0tNBpL-92" value="" style="endArrow=none;html=1;rounded=0;" parent="1" target="T_bKocLDF5SG0f0tNBpL-94" edge="1">
          <mxGeometry width="50" height="50" relative="1" as="geometry">
            <mxPoint x="3498.715728752539" y="1284.92" as="sourcePoint" />
            <mxPoint x="3578.715728752539" y="1285.08" as="targetPoint" />
            <Array as="points" />
          </mxGeometry>
        </mxCell>
        <mxCell id="T_bKocLDF5SG0f0tNBpL-93" style="edgeStyle=orthogonalEdgeStyle;rounded=0;orthogonalLoop=1;jettySize=auto;html=1;entryX=1;entryY=0;entryDx=0;entryDy=0;" parent="1" source="T_bKocLDF5SG0f0tNBpL-94" target="T_bKocLDF5SG0f0tNBpL-85" edge="1">
          <mxGeometry relative="1" as="geometry">
            <Array as="points">
              <mxPoint x="3928.715728752539" y="1270" />
              <mxPoint x="3928.715728752539" y="2159" />
            </Array>
          </mxGeometry>
        </mxCell>
        <mxCell id="T_bKocLDF5SG0f0tNBpL-94" value="USUARIOS" style="text;html=1;align=center;verticalAlign=middle;resizable=0;points=[];autosize=1;strokeColor=none;fillColor=none;" parent="1" vertex="1">
          <mxGeometry x="3498.715728752539" y="1255" width="90" height="30" as="geometry" />
        </mxCell>
        <mxCell id="T_bKocLDF5SG0f0tNBpL-95" value="" style="endArrow=none;html=1;rounded=0;" parent="1" edge="1">
          <mxGeometry width="50" height="50" relative="1" as="geometry">
            <mxPoint x="3823.715728752539" y="2269.17" as="sourcePoint" />
            <mxPoint x="3903.715728752539" y="2269.33" as="targetPoint" />
            <Array as="points">
              <mxPoint x="3823.715728752539" y="2269.17" />
            </Array>
          </mxGeometry>
        </mxCell>
        <mxCell id="T_bKocLDF5SG0f0tNBpL-96" value="" style="endArrow=none;html=1;rounded=0;" parent="1" edge="1">
          <mxGeometry width="50" height="50" relative="1" as="geometry">
            <mxPoint x="3823.715728752539" y="2299.17" as="sourcePoint" />
            <mxPoint x="3903.715728752539" y="2299.33" as="targetPoint" />
            <Array as="points">
              <mxPoint x="3823.715728752539" y="2299.17" />
            </Array>
          </mxGeometry>
        </mxCell>
        <mxCell id="T_bKocLDF5SG0f0tNBpL-97" style="edgeStyle=orthogonalEdgeStyle;rounded=0;orthogonalLoop=1;jettySize=auto;html=1;entryX=1;entryY=1;entryDx=0;entryDy=0;" parent="1" source="T_bKocLDF5SG0f0tNBpL-98" target="T_bKocLDF5SG0f0tNBpL-87" edge="1">
          <mxGeometry relative="1" as="geometry">
            <Array as="points">
              <mxPoint x="3958.715728752539" y="2284" />
              <mxPoint x="3958.715728752539" y="2391" />
            </Array>
          </mxGeometry>
        </mxCell>
        <mxCell id="T_bKocLDF5SG0f0tNBpL-98" value="PLATAFORMAS" style="text;html=1;align=center;verticalAlign=middle;resizable=0;points=[];autosize=1;strokeColor=none;fillColor=none;" parent="1" vertex="1">
          <mxGeometry x="3808.715728752539" y="2269.17" width="110" height="30" as="geometry" />
        </mxCell>
        <mxCell id="T_bKocLDF5SG0f0tNBpL-99" value="" style="endArrow=none;html=1;rounded=0;" parent="1" edge="1">
          <mxGeometry width="50" height="50" relative="1" as="geometry">
            <mxPoint x="3428.715728752539" y="1871.3000000000002" as="sourcePoint" />
            <mxPoint x="3508.715728752539" y="1871.46" as="targetPoint" />
            <Array as="points">
              <mxPoint x="3428.715728752539" y="1871.3000000000002" />
            </Array>
          </mxGeometry>
        </mxCell>
        <mxCell id="T_bKocLDF5SG0f0tNBpL-100" value="" style="endArrow=none;html=1;rounded=0;" parent="1" edge="1">
          <mxGeometry width="50" height="50" relative="1" as="geometry">
            <mxPoint x="3428.715728752539" y="1891.46" as="sourcePoint" />
            <mxPoint x="3508.715728752539" y="1891.62" as="targetPoint" />
            <Array as="points">
              <mxPoint x="3428.715728752539" y="1891.46" />
            </Array>
          </mxGeometry>
        </mxCell>
        <mxCell id="T_bKocLDF5SG0f0tNBpL-101" style="edgeStyle=orthogonalEdgeStyle;rounded=0;orthogonalLoop=1;jettySize=auto;html=1;entryX=0.994;entryY=0.556;entryDx=0;entryDy=0;entryPerimeter=0;" parent="1" source="T_bKocLDF5SG0f0tNBpL-103" target="T_bKocLDF5SG0f0tNBpL-104" edge="1">
          <mxGeometry relative="1" as="geometry">
            <Array as="points">
              <mxPoint x="3478.715728752539" y="2042" />
            </Array>
          </mxGeometry>
        </mxCell>
        <mxCell id="T_bKocLDF5SG0f0tNBpL-102" style="edgeStyle=orthogonalEdgeStyle;rounded=0;orthogonalLoop=1;jettySize=auto;html=1;entryX=1;entryY=0.5;entryDx=0;entryDy=0;" parent="1" source="T_bKocLDF5SG0f0tNBpL-103" target="T_bKocLDF5SG0f0tNBpL-122" edge="1">
          <mxGeometry relative="1" as="geometry">
            <Array as="points">
              <mxPoint x="3468.715728752539" y="2300" />
              <mxPoint x="2738.715728752539" y="2300" />
              <mxPoint x="2738.715728752539" y="1743" />
            </Array>
          </mxGeometry>
        </mxCell>
        <mxCell id="T_bKocLDF5SG0f0tNBpL-103" value="EMISION" style="text;html=1;align=center;verticalAlign=middle;resizable=0;points=[];autosize=1;strokeColor=none;fillColor=none;" parent="1" vertex="1">
          <mxGeometry x="3433.715728752539" y="1870" width="70" height="30" as="geometry" />
        </mxCell>
        <mxCell id="T_bKocLDF5SG0f0tNBpL-104" value="Ver Emisiones" style="ellipse;whiteSpace=wrap;html=1;aspect=fixed;" parent="1" vertex="1">
          <mxGeometry x="3213.715728752539" y="1970" width="130" height="130" as="geometry" />
        </mxCell>
        <mxCell id="T_bKocLDF5SG0f0tNBpL-105" value="" style="endArrow=none;html=1;rounded=0;" parent="1" edge="1">
          <mxGeometry width="50" height="50" relative="1" as="geometry">
            <mxPoint x="3838.715728752539" y="1880" as="sourcePoint" />
            <mxPoint x="3918.715728752539" y="1880.1599999999999" as="targetPoint" />
            <Array as="points">
              <mxPoint x="3838.715728752539" y="1880" />
            </Array>
          </mxGeometry>
        </mxCell>
        <mxCell id="T_bKocLDF5SG0f0tNBpL-106" value="" style="endArrow=none;html=1;rounded=0;" parent="1" edge="1">
          <mxGeometry width="50" height="50" relative="1" as="geometry">
            <mxPoint x="3838.715728752539" y="1910" as="sourcePoint" />
            <mxPoint x="3918.715728752539" y="1910.1599999999999" as="targetPoint" />
            <Array as="points">
              <mxPoint x="3838.715728752539" y="1910" />
            </Array>
          </mxGeometry>
        </mxCell>
        <mxCell id="T_bKocLDF5SG0f0tNBpL-107" style="edgeStyle=orthogonalEdgeStyle;rounded=0;orthogonalLoop=1;jettySize=auto;html=1;entryX=1;entryY=0;entryDx=0;entryDy=0;" parent="1" source="T_bKocLDF5SG0f0tNBpL-108" target="T_bKocLDF5SG0f0tNBpL-83" edge="1">
          <mxGeometry relative="1" as="geometry">
            <Array as="points">
              <mxPoint x="3878.715728752539" y="1860" />
              <mxPoint x="3749.715728752539" y="1860" />
            </Array>
          </mxGeometry>
        </mxCell>
        <mxCell id="T_bKocLDF5SG0f0tNBpL-108" value="SEGMENTOS" style="text;html=1;align=center;verticalAlign=middle;resizable=0;points=[];autosize=1;strokeColor=none;fillColor=none;" parent="1" vertex="1">
          <mxGeometry x="3828.715728752539" y="1880" width="100" height="30" as="geometry" />
        </mxCell>
        <mxCell id="T_bKocLDF5SG0f0tNBpL-109" value="" style="edgeStyle=orthogonalEdgeStyle;rounded=0;orthogonalLoop=1;jettySize=auto;html=1;exitX=0.5;exitY=1;exitDx=0;exitDy=0;" parent="1" source="T_bKocLDF5SG0f0tNBpL-36" target="T_bKocLDF5SG0f0tNBpL-113" edge="1">
          <mxGeometry relative="1" as="geometry">
            <mxPoint x="3273.715728752539" y="1350" as="sourcePoint" />
            <mxPoint x="3698.715728752539" y="1570" as="targetPoint" />
          </mxGeometry>
        </mxCell>
        <mxCell id="T_bKocLDF5SG0f0tNBpL-110" style="edgeStyle=orthogonalEdgeStyle;rounded=0;orthogonalLoop=1;jettySize=auto;html=1;exitX=0;exitY=0.5;exitDx=0;exitDy=0;" parent="1" source="T_bKocLDF5SG0f0tNBpL-113" target="T_bKocLDF5SG0f0tNBpL-44" edge="1">
          <mxGeometry relative="1" as="geometry" />
        </mxCell>
        <mxCell id="T_bKocLDF5SG0f0tNBpL-111" style="edgeStyle=orthogonalEdgeStyle;rounded=0;orthogonalLoop=1;jettySize=auto;html=1;exitX=0.5;exitY=1;exitDx=0;exitDy=0;entryX=0.5;entryY=0;entryDx=0;entryDy=0;" parent="1" source="T_bKocLDF5SG0f0tNBpL-113" target="T_bKocLDF5SG0f0tNBpL-48" edge="1">
          <mxGeometry relative="1" as="geometry" />
        </mxCell>
        <mxCell id="T_bKocLDF5SG0f0tNBpL-112" style="edgeStyle=orthogonalEdgeStyle;rounded=0;orthogonalLoop=1;jettySize=auto;html=1;exitX=0;exitY=0;exitDx=0;exitDy=0;entryX=0.5;entryY=0;entryDx=0;entryDy=0;" parent="1" source="T_bKocLDF5SG0f0tNBpL-113" target="T_bKocLDF5SG0f0tNBpL-120" edge="1">
          <mxGeometry relative="1" as="geometry" />
        </mxCell>
        <mxCell id="T_bKocLDF5SG0f0tNBpL-113" value="Identificar Rol" style="ellipse;whiteSpace=wrap;html=1;aspect=fixed;" parent="1" vertex="1">
          <mxGeometry x="3208.715728752539" y="1390" width="130" height="130" as="geometry" />
        </mxCell>
        <mxCell id="T_bKocLDF5SG0f0tNBpL-114" value="" style="endArrow=none;html=1;rounded=0;" parent="1" edge="1">
          <mxGeometry width="50" height="50" relative="1" as="geometry">
            <mxPoint x="4128.715728752539" y="1250" as="sourcePoint" />
            <mxPoint x="4208.715728752539" y="1250.1599999999999" as="targetPoint" />
            <Array as="points">
              <mxPoint x="4128.715728752539" y="1250" />
            </Array>
          </mxGeometry>
        </mxCell>
        <mxCell id="T_bKocLDF5SG0f0tNBpL-115" value="" style="endArrow=none;html=1;rounded=0;" parent="1" edge="1">
          <mxGeometry width="50" height="50" relative="1" as="geometry">
            <mxPoint x="4128.715728752539" y="1280" as="sourcePoint" />
            <mxPoint x="4208.715728752539" y="1280.1599999999999" as="targetPoint" />
            <Array as="points">
              <mxPoint x="4128.715728752539" y="1280" />
            </Array>
          </mxGeometry>
        </mxCell>
        <mxCell id="T_bKocLDF5SG0f0tNBpL-116" value="ROLES" style="text;html=1;align=center;verticalAlign=middle;resizable=0;points=[];autosize=1;strokeColor=none;fillColor=none;" parent="1" vertex="1">
          <mxGeometry x="4138.715728752539" y="1250" width="60" height="30" as="geometry" />
        </mxCell>
        <mxCell id="T_bKocLDF5SG0f0tNBpL-117" style="edgeStyle=orthogonalEdgeStyle;rounded=0;orthogonalLoop=1;jettySize=auto;html=1;entryX=0.923;entryY=0.192;entryDx=0;entryDy=0;entryPerimeter=0;" parent="1" source="T_bKocLDF5SG0f0tNBpL-116" target="T_bKocLDF5SG0f0tNBpL-113" edge="1">
          <mxGeometry relative="1" as="geometry">
            <Array as="points">
              <mxPoint x="4098.715728752539" y="1265" />
              <mxPoint x="4098.715728752539" y="1370" />
              <mxPoint x="3328.715728752539" y="1370" />
            </Array>
          </mxGeometry>
        </mxCell>
        <mxCell id="T_bKocLDF5SG0f0tNBpL-118" style="edgeStyle=orthogonalEdgeStyle;rounded=0;orthogonalLoop=1;jettySize=auto;html=1;exitX=0.5;exitY=1;exitDx=0;exitDy=0;entryX=0.5;entryY=0;entryDx=0;entryDy=0;" parent="1" source="T_bKocLDF5SG0f0tNBpL-120" target="T_bKocLDF5SG0f0tNBpL-122" edge="1">
          <mxGeometry relative="1" as="geometry" />
        </mxCell>
        <mxCell id="T_bKocLDF5SG0f0tNBpL-119" style="edgeStyle=orthogonalEdgeStyle;rounded=0;orthogonalLoop=1;jettySize=auto;html=1;exitX=0;exitY=0.5;exitDx=0;exitDy=0;" parent="1" source="T_bKocLDF5SG0f0tNBpL-120" target="T_bKocLDF5SG0f0tNBpL-289" edge="1">
          <mxGeometry relative="1" as="geometry" />
        </mxCell>
        <mxCell id="T_bKocLDF5SG0f0tNBpL-120" value="Espectador" style="rounded=0;whiteSpace=wrap;html=1;" parent="1" vertex="1">
          <mxGeometry x="2553.715728752539" y="1570" width="120" height="60" as="geometry" />
        </mxCell>
        <mxCell id="T_bKocLDF5SG0f0tNBpL-121" style="edgeStyle=orthogonalEdgeStyle;rounded=0;orthogonalLoop=1;jettySize=auto;html=1;exitX=0.5;exitY=1;exitDx=0;exitDy=0;entryX=0.5;entryY=0;entryDx=0;entryDy=0;" parent="1" source="T_bKocLDF5SG0f0tNBpL-122" target="T_bKocLDF5SG0f0tNBpL-123" edge="1">
          <mxGeometry relative="1" as="geometry" />
        </mxCell>
        <mxCell id="T_bKocLDF5SG0f0tNBpL-122" value="ver Programa en vivo" style="ellipse;whiteSpace=wrap;html=1;aspect=fixed;" parent="1" vertex="1">
          <mxGeometry x="2548.715728752539" y="1678" width="130" height="130" as="geometry" />
        </mxCell>
        <mxCell id="T_bKocLDF5SG0f0tNBpL-123" value="Valorar" style="ellipse;whiteSpace=wrap;html=1;aspect=fixed;" parent="1" vertex="1">
          <mxGeometry x="2548.715728752539" y="1880" width="130" height="130" as="geometry" />
        </mxCell>
        <mxCell id="T_bKocLDF5SG0f0tNBpL-124" style="edgeStyle=orthogonalEdgeStyle;rounded=0;orthogonalLoop=1;jettySize=auto;html=1;entryX=0.5;entryY=0.042;entryDx=0;entryDy=0;entryPerimeter=0;" parent="1" source="T_bKocLDF5SG0f0tNBpL-70" target="T_bKocLDF5SG0f0tNBpL-103" edge="1">
          <mxGeometry relative="1" as="geometry">
            <Array as="points">
              <mxPoint x="3468.715728752539" y="1750" />
              <mxPoint x="3468.715728752539" y="1750" />
            </Array>
          </mxGeometry>
        </mxCell>
        <mxCell id="T_bKocLDF5SG0f0tNBpL-125" style="edgeStyle=orthogonalEdgeStyle;rounded=0;orthogonalLoop=1;jettySize=auto;html=1;entryX=0.694;entryY=1;entryDx=0;entryDy=0;entryPerimeter=0;" parent="1" source="T_bKocLDF5SG0f0tNBpL-123" target="T_bKocLDF5SG0f0tNBpL-91" edge="1">
          <mxGeometry relative="1" as="geometry">
            <Array as="points">
              <mxPoint x="2608.715728752539" y="2650" />
              <mxPoint x="3881.715728752539" y="2650" />
            </Array>
          </mxGeometry>
        </mxCell>
        <mxCell id="T_bKocLDF5SG0f0tNBpL-126" style="edgeStyle=orthogonalEdgeStyle;rounded=0;orthogonalLoop=1;jettySize=auto;html=1;entryX=0;entryY=0.5;entryDx=0;entryDy=0;" parent="1" source="T_bKocLDF5SG0f0tNBpL-127" target="T_bKocLDF5SG0f0tNBpL-129" edge="1">
          <mxGeometry relative="1" as="geometry" />
        </mxCell>
        <mxCell id="T_bKocLDF5SG0f0tNBpL-127" value="Empleado" style="rounded=0;whiteSpace=wrap;html=1;" parent="1" vertex="1">
          <mxGeometry x="5138.715728752539" y="1130" width="120" height="60" as="geometry" />
        </mxCell>
        <mxCell id="T_bKocLDF5SG0f0tNBpL-128" style="edgeStyle=orthogonalEdgeStyle;rounded=0;orthogonalLoop=1;jettySize=auto;html=1;exitX=0.5;exitY=1;exitDx=0;exitDy=0;entryX=0.5;entryY=0;entryDx=0;entryDy=0;" parent="1" source="T_bKocLDF5SG0f0tNBpL-129" target="T_bKocLDF5SG0f0tNBpL-136" edge="1">
          <mxGeometry relative="1" as="geometry" />
        </mxCell>
        <mxCell id="T_bKocLDF5SG0f0tNBpL-129" value="Iniciar Sesion" style="ellipse;whiteSpace=wrap;html=1;aspect=fixed;" parent="1" vertex="1">
          <mxGeometry x="5328.715728752539" y="1095" width="130" height="130" as="geometry" />
        </mxCell>
        <mxCell id="T_bKocLDF5SG0f0tNBpL-130" style="edgeStyle=orthogonalEdgeStyle;rounded=0;orthogonalLoop=1;jettySize=auto;html=1;exitX=1;exitY=1;exitDx=0;exitDy=0;entryX=1;entryY=0.5;entryDx=0;entryDy=0;" parent="1" source="T_bKocLDF5SG0f0tNBpL-131" target="T_bKocLDF5SG0f0tNBpL-251" edge="1">
          <mxGeometry relative="1" as="geometry">
            <Array as="points">
              <mxPoint x="5098.715728752539" y="1836" />
              <mxPoint x="5098.715728752539" y="2085" />
            </Array>
          </mxGeometry>
        </mxCell>
        <mxCell id="T_bKocLDF5SG0f0tNBpL-131" value="Ver contenido" style="ellipse;whiteSpace=wrap;html=1;aspect=fixed;" parent="1" vertex="1">
          <mxGeometry x="4948.715728752539" y="1725" width="130" height="130" as="geometry" />
        </mxCell>
        <mxCell id="T_bKocLDF5SG0f0tNBpL-132" value="Ver parrilla semanal" style="ellipse;whiteSpace=wrap;html=1;aspect=fixed;" parent="1" vertex="1">
          <mxGeometry x="4948.715728752539" y="2620" width="130" height="130" as="geometry" />
        </mxCell>
        <mxCell id="T_bKocLDF5SG0f0tNBpL-133" style="edgeStyle=orthogonalEdgeStyle;rounded=0;orthogonalLoop=1;jettySize=auto;html=1;exitX=0;exitY=0.5;exitDx=0;exitDy=0;entryX=1;entryY=0.474;entryDx=0;entryDy=0;entryPerimeter=0;" parent="1" source="T_bKocLDF5SG0f0tNBpL-134" target="T_bKocLDF5SG0f0tNBpL-161" edge="1">
          <mxGeometry relative="1" as="geometry" />
        </mxCell>
        <mxCell id="T_bKocLDF5SG0f0tNBpL-134" value="Mover programa&amp;nbsp;" style="ellipse;whiteSpace=wrap;html=1;aspect=fixed;" parent="1" vertex="1">
          <mxGeometry x="5328.715728752539" y="1713" width="130" height="130" as="geometry" />
        </mxCell>
        <mxCell id="T_bKocLDF5SG0f0tNBpL-135" style="edgeStyle=orthogonalEdgeStyle;rounded=0;orthogonalLoop=1;jettySize=auto;html=1;" parent="1" source="T_bKocLDF5SG0f0tNBpL-205" target="T_bKocLDF5SG0f0tNBpL-151" edge="1">
          <mxGeometry relative="1" as="geometry" />
        </mxCell>
        <mxCell id="T_bKocLDF5SG0f0tNBpL-136" value="Identificar usuario" style="ellipse;whiteSpace=wrap;html=1;aspect=fixed;" parent="1" vertex="1">
          <mxGeometry x="5328.715728752539" y="1255" width="130" height="130" as="geometry" />
        </mxCell>
        <mxCell id="T_bKocLDF5SG0f0tNBpL-137" value="" style="endArrow=none;html=1;rounded=0;" parent="1" edge="1">
          <mxGeometry width="50" height="50" relative="1" as="geometry">
            <mxPoint x="5623.715728752539" y="1289.8400000000001" as="sourcePoint" />
            <mxPoint x="5703.715728752539" y="1290" as="targetPoint" />
            <Array as="points">
              <mxPoint x="5623.715728752539" y="1289.8400000000001" />
            </Array>
          </mxGeometry>
        </mxCell>
        <mxCell id="T_bKocLDF5SG0f0tNBpL-138" value="" style="endArrow=none;html=1;rounded=0;" parent="1" edge="1">
          <mxGeometry width="50" height="50" relative="1" as="geometry">
            <mxPoint x="5623.715728752539" y="1310" as="sourcePoint" />
            <mxPoint x="5703.715728752539" y="1310.1599999999999" as="targetPoint" />
            <Array as="points">
              <mxPoint x="5623.715728752539" y="1310" />
            </Array>
          </mxGeometry>
        </mxCell>
        <mxCell id="T_bKocLDF5SG0f0tNBpL-139" style="edgeStyle=orthogonalEdgeStyle;rounded=0;orthogonalLoop=1;jettySize=auto;html=1;entryX=1;entryY=0.5;entryDx=0;entryDy=0;" parent="1" source="T_bKocLDF5SG0f0tNBpL-186" target="T_bKocLDF5SG0f0tNBpL-136" edge="1">
          <mxGeometry relative="1" as="geometry" />
        </mxCell>
        <mxCell id="T_bKocLDF5SG0f0tNBpL-140" style="edgeStyle=orthogonalEdgeStyle;rounded=0;orthogonalLoop=1;jettySize=auto;html=1;exitX=0.5;exitY=1;exitDx=0;exitDy=0;entryX=0.5;entryY=0;entryDx=0;entryDy=0;" parent="1" source="T_bKocLDF5SG0f0tNBpL-145" target="T_bKocLDF5SG0f0tNBpL-131" edge="1">
          <mxGeometry relative="1" as="geometry" />
        </mxCell>
        <mxCell id="T_bKocLDF5SG0f0tNBpL-141" style="edgeStyle=orthogonalEdgeStyle;rounded=0;orthogonalLoop=1;jettySize=auto;html=1;exitX=0;exitY=0.5;exitDx=0;exitDy=0;entryX=0;entryY=0.5;entryDx=0;entryDy=0;" parent="1" source="T_bKocLDF5SG0f0tNBpL-145" target="T_bKocLDF5SG0f0tNBpL-131" edge="1">
          <mxGeometry relative="1" as="geometry" />
        </mxCell>
        <mxCell id="T_bKocLDF5SG0f0tNBpL-142" style="edgeStyle=orthogonalEdgeStyle;rounded=0;orthogonalLoop=1;jettySize=auto;html=1;exitX=0;exitY=0.5;exitDx=0;exitDy=0;entryX=0;entryY=0.5;entryDx=0;entryDy=0;" parent="1" source="T_bKocLDF5SG0f0tNBpL-145" target="T_bKocLDF5SG0f0tNBpL-152" edge="1">
          <mxGeometry relative="1" as="geometry" />
        </mxCell>
        <mxCell id="T_bKocLDF5SG0f0tNBpL-143" style="edgeStyle=orthogonalEdgeStyle;rounded=0;orthogonalLoop=1;jettySize=auto;html=1;exitX=0;exitY=0.5;exitDx=0;exitDy=0;entryX=0;entryY=0.5;entryDx=0;entryDy=0;" parent="1" source="T_bKocLDF5SG0f0tNBpL-145" target="T_bKocLDF5SG0f0tNBpL-254" edge="1">
          <mxGeometry relative="1" as="geometry" />
        </mxCell>
        <mxCell id="T_bKocLDF5SG0f0tNBpL-144" style="edgeStyle=orthogonalEdgeStyle;rounded=0;orthogonalLoop=1;jettySize=auto;html=1;exitX=0;exitY=0.5;exitDx=0;exitDy=0;entryX=0;entryY=0.5;entryDx=0;entryDy=0;" parent="1" source="T_bKocLDF5SG0f0tNBpL-145" target="T_bKocLDF5SG0f0tNBpL-256" edge="1">
          <mxGeometry relative="1" as="geometry" />
        </mxCell>
        <mxCell id="T_bKocLDF5SG0f0tNBpL-145" value="Productor/Editor" style="rounded=0;whiteSpace=wrap;html=1;" parent="1" vertex="1">
          <mxGeometry x="4963.715728752539" y="1605" width="120" height="60" as="geometry" />
        </mxCell>
        <mxCell id="T_bKocLDF5SG0f0tNBpL-146" style="edgeStyle=orthogonalEdgeStyle;rounded=0;orthogonalLoop=1;jettySize=auto;html=1;exitX=0.5;exitY=1;exitDx=0;exitDy=0;entryX=0.5;entryY=0;entryDx=0;entryDy=0;" parent="1" source="T_bKocLDF5SG0f0tNBpL-149" target="T_bKocLDF5SG0f0tNBpL-134" edge="1">
          <mxGeometry relative="1" as="geometry" />
        </mxCell>
        <mxCell id="T_bKocLDF5SG0f0tNBpL-147" style="edgeStyle=orthogonalEdgeStyle;rounded=0;orthogonalLoop=1;jettySize=auto;html=1;exitX=0;exitY=0.5;exitDx=0;exitDy=0;entryX=0;entryY=0.5;entryDx=0;entryDy=0;" parent="1" source="T_bKocLDF5SG0f0tNBpL-149" target="T_bKocLDF5SG0f0tNBpL-167" edge="1">
          <mxGeometry relative="1" as="geometry" />
        </mxCell>
        <mxCell id="T_bKocLDF5SG0f0tNBpL-148" style="edgeStyle=orthogonalEdgeStyle;rounded=0;orthogonalLoop=1;jettySize=auto;html=1;exitX=0;exitY=0.5;exitDx=0;exitDy=0;entryX=0;entryY=0.5;entryDx=0;entryDy=0;" parent="1" source="T_bKocLDF5SG0f0tNBpL-149" target="T_bKocLDF5SG0f0tNBpL-196" edge="1">
          <mxGeometry relative="1" as="geometry" />
        </mxCell>
        <mxCell id="T_bKocLDF5SG0f0tNBpL-149" value="Programador" style="rounded=0;whiteSpace=wrap;html=1;" parent="1" vertex="1">
          <mxGeometry x="5333.715728752539" y="1605" width="120" height="60" as="geometry" />
        </mxCell>
        <mxCell id="T_bKocLDF5SG0f0tNBpL-150" style="edgeStyle=orthogonalEdgeStyle;rounded=0;orthogonalLoop=1;jettySize=auto;html=1;exitX=0.5;exitY=1;exitDx=0;exitDy=0;" parent="1" source="T_bKocLDF5SG0f0tNBpL-151" target="T_bKocLDF5SG0f0tNBpL-177" edge="1">
          <mxGeometry relative="1" as="geometry" />
        </mxCell>
        <mxCell id="T_bKocLDF5SG0f0tNBpL-151" value="Administrador" style="rounded=0;whiteSpace=wrap;html=1;" parent="1" vertex="1">
          <mxGeometry x="5758.715728752539" y="1605" width="120" height="60" as="geometry" />
        </mxCell>
        <mxCell id="T_bKocLDF5SG0f0tNBpL-152" value="AÃ±adir contenido" style="ellipse;whiteSpace=wrap;html=1;aspect=fixed;" parent="1" vertex="1">
          <mxGeometry x="4948.715728752539" y="1875" width="130" height="130" as="geometry" />
        </mxCell>
        <mxCell id="T_bKocLDF5SG0f0tNBpL-153" value="2" style="text;html=1;align=center;verticalAlign=middle;resizable=0;points=[];autosize=1;strokeColor=none;fillColor=none;" parent="1" vertex="1">
          <mxGeometry x="4998.715728752539" y="2630" width="30" height="30" as="geometry" />
        </mxCell>
        <mxCell id="T_bKocLDF5SG0f0tNBpL-154" value="" style="endArrow=none;html=1;rounded=0;" parent="1" edge="1">
          <mxGeometry width="50" height="50" relative="1" as="geometry">
            <mxPoint x="5138.715728752539" y="1764.3000000000002" as="sourcePoint" />
            <mxPoint x="5218.715728752539" y="1764.46" as="targetPoint" />
            <Array as="points">
              <mxPoint x="5138.715728752539" y="1764.3000000000002" />
            </Array>
          </mxGeometry>
        </mxCell>
        <mxCell id="T_bKocLDF5SG0f0tNBpL-155" value="" style="endArrow=none;html=1;rounded=0;" parent="1" edge="1">
          <mxGeometry width="50" height="50" relative="1" as="geometry">
            <mxPoint x="5138.715728752539" y="1784.46" as="sourcePoint" />
            <mxPoint x="5218.715728752539" y="1784.62" as="targetPoint" />
            <Array as="points">
              <mxPoint x="5138.715728752539" y="1784.46" />
            </Array>
          </mxGeometry>
        </mxCell>
        <mxCell id="T_bKocLDF5SG0f0tNBpL-156" style="edgeStyle=orthogonalEdgeStyle;rounded=0;orthogonalLoop=1;jettySize=auto;html=1;entryX=0;entryY=0.5;entryDx=0;entryDy=0;" parent="1" source="T_bKocLDF5SG0f0tNBpL-157" target="T_bKocLDF5SG0f0tNBpL-279" edge="1">
          <mxGeometry relative="1" as="geometry">
            <Array as="points">
              <mxPoint x="5178.715728752539" y="1700" />
              <mxPoint x="4498.715728752539" y="1700" />
              <mxPoint x="4498.715728752539" y="1785" />
            </Array>
          </mxGeometry>
        </mxCell>
        <mxCell id="T_bKocLDF5SG0f0tNBpL-157" value="CONTENIDOS" style="text;html=1;align=center;verticalAlign=middle;resizable=0;points=[];autosize=1;strokeColor=none;fillColor=none;" parent="1" vertex="1">
          <mxGeometry x="5128.715728752539" y="1763" width="100" height="30" as="geometry" />
        </mxCell>
        <mxCell id="T_bKocLDF5SG0f0tNBpL-158" value="" style="endArrow=none;html=1;rounded=0;" parent="1" edge="1">
          <mxGeometry width="50" height="50" relative="1" as="geometry">
            <mxPoint x="5143.715728752539" y="2670" as="sourcePoint" />
            <mxPoint x="5213.715728752539" y="2670" as="targetPoint" />
          </mxGeometry>
        </mxCell>
        <mxCell id="T_bKocLDF5SG0f0tNBpL-159" value="" style="endArrow=none;html=1;rounded=0;" parent="1" edge="1">
          <mxGeometry width="50" height="50" relative="1" as="geometry">
            <mxPoint x="5143.715728752539" y="2690" as="sourcePoint" />
            <mxPoint x="5213.715728752539" y="2690" as="targetPoint" />
          </mxGeometry>
        </mxCell>
        <mxCell id="T_bKocLDF5SG0f0tNBpL-160" style="edgeStyle=orthogonalEdgeStyle;rounded=0;orthogonalLoop=1;jettySize=auto;html=1;entryX=1;entryY=0.5;entryDx=0;entryDy=0;" parent="1" source="T_bKocLDF5SG0f0tNBpL-161" target="T_bKocLDF5SG0f0tNBpL-132" edge="1">
          <mxGeometry relative="1" as="geometry" />
        </mxCell>
        <mxCell id="T_bKocLDF5SG0f0tNBpL-161" value="PARRILLA" style="text;html=1;align=center;verticalAlign=middle;resizable=0;points=[];autosize=1;strokeColor=none;fillColor=none;" parent="1" vertex="1">
          <mxGeometry x="5138.715728752539" y="2670" width="80" height="30" as="geometry" />
        </mxCell>
        <mxCell id="T_bKocLDF5SG0f0tNBpL-162" value="" style="endArrow=none;html=1;rounded=0;" parent="1" edge="1">
          <mxGeometry width="50" height="50" relative="1" as="geometry">
            <mxPoint x="5508.715728752539" y="1734.3000000000002" as="sourcePoint" />
            <mxPoint x="5588.715728752539" y="1734.46" as="targetPoint" />
            <Array as="points">
              <mxPoint x="5508.715728752539" y="1734.3000000000002" />
            </Array>
          </mxGeometry>
        </mxCell>
        <mxCell id="T_bKocLDF5SG0f0tNBpL-163" value="" style="endArrow=none;html=1;rounded=0;" parent="1" edge="1">
          <mxGeometry width="50" height="50" relative="1" as="geometry">
            <mxPoint x="5508.715728752539" y="1754.46" as="sourcePoint" />
            <mxPoint x="5588.715728752539" y="1754.62" as="targetPoint" />
            <Array as="points">
              <mxPoint x="5508.715728752539" y="1754.46" />
            </Array>
          </mxGeometry>
        </mxCell>
        <mxCell id="T_bKocLDF5SG0f0tNBpL-164" style="edgeStyle=orthogonalEdgeStyle;rounded=0;orthogonalLoop=1;jettySize=auto;html=1;" parent="1" source="T_bKocLDF5SG0f0tNBpL-165" target="T_bKocLDF5SG0f0tNBpL-134" edge="1">
          <mxGeometry relative="1" as="geometry" />
        </mxCell>
        <mxCell id="T_bKocLDF5SG0f0tNBpL-165" value="PROGRAMA" style="text;html=1;align=center;verticalAlign=middle;resizable=0;points=[];autosize=1;strokeColor=none;fillColor=none;" parent="1" vertex="1">
          <mxGeometry x="5503.715728752539" y="1733" width="90" height="30" as="geometry" />
        </mxCell>
        <mxCell id="T_bKocLDF5SG0f0tNBpL-166" style="edgeStyle=orthogonalEdgeStyle;rounded=0;orthogonalLoop=1;jettySize=auto;html=1;" parent="1" source="T_bKocLDF5SG0f0tNBpL-167" target="T_bKocLDF5SG0f0tNBpL-195" edge="1">
          <mxGeometry relative="1" as="geometry" />
        </mxCell>
        <mxCell id="T_bKocLDF5SG0f0tNBpL-167" value="Programar emision" style="ellipse;whiteSpace=wrap;html=1;aspect=fixed;" parent="1" vertex="1">
          <mxGeometry x="5328.715728752539" y="1855" width="130" height="130" as="geometry" />
        </mxCell>
        <mxCell id="T_bKocLDF5SG0f0tNBpL-168" style="edgeStyle=orthogonalEdgeStyle;rounded=0;orthogonalLoop=1;jettySize=auto;html=1;exitX=0;exitY=0.5;exitDx=0;exitDy=0;entryX=0;entryY=0.5;entryDx=0;entryDy=0;" parent="1" source="T_bKocLDF5SG0f0tNBpL-177" target="T_bKocLDF5SG0f0tNBpL-179" edge="1">
          <mxGeometry relative="1" as="geometry" />
        </mxCell>
        <mxCell id="T_bKocLDF5SG0f0tNBpL-169" style="edgeStyle=orthogonalEdgeStyle;rounded=0;orthogonalLoop=1;jettySize=auto;html=1;exitX=0;exitY=0.5;exitDx=0;exitDy=0;entryX=0;entryY=0.5;entryDx=0;entryDy=0;" parent="1" source="T_bKocLDF5SG0f0tNBpL-177" target="T_bKocLDF5SG0f0tNBpL-220" edge="1">
          <mxGeometry relative="1" as="geometry" />
        </mxCell>
        <mxCell id="T_bKocLDF5SG0f0tNBpL-170" style="edgeStyle=orthogonalEdgeStyle;rounded=0;orthogonalLoop=1;jettySize=auto;html=1;exitX=0;exitY=0.5;exitDx=0;exitDy=0;entryX=0;entryY=0.5;entryDx=0;entryDy=0;" parent="1" source="T_bKocLDF5SG0f0tNBpL-177" target="T_bKocLDF5SG0f0tNBpL-224" edge="1">
          <mxGeometry relative="1" as="geometry" />
        </mxCell>
        <mxCell id="T_bKocLDF5SG0f0tNBpL-171" style="edgeStyle=orthogonalEdgeStyle;rounded=0;orthogonalLoop=1;jettySize=auto;html=1;exitX=0;exitY=0.5;exitDx=0;exitDy=0;entryX=0;entryY=0.5;entryDx=0;entryDy=0;" parent="1" source="T_bKocLDF5SG0f0tNBpL-177" target="T_bKocLDF5SG0f0tNBpL-225" edge="1">
          <mxGeometry relative="1" as="geometry" />
        </mxCell>
        <mxCell id="T_bKocLDF5SG0f0tNBpL-172" style="edgeStyle=orthogonalEdgeStyle;rounded=0;orthogonalLoop=1;jettySize=auto;html=1;exitX=0;exitY=0.5;exitDx=0;exitDy=0;entryX=0;entryY=0.5;entryDx=0;entryDy=0;" parent="1" source="T_bKocLDF5SG0f0tNBpL-177" target="T_bKocLDF5SG0f0tNBpL-231" edge="1">
          <mxGeometry relative="1" as="geometry" />
        </mxCell>
        <mxCell id="T_bKocLDF5SG0f0tNBpL-173" style="edgeStyle=orthogonalEdgeStyle;rounded=0;orthogonalLoop=1;jettySize=auto;html=1;exitX=0;exitY=0.5;exitDx=0;exitDy=0;entryX=0;entryY=0.5;entryDx=0;entryDy=0;" parent="1" source="T_bKocLDF5SG0f0tNBpL-177" target="T_bKocLDF5SG0f0tNBpL-232" edge="1">
          <mxGeometry relative="1" as="geometry" />
        </mxCell>
        <mxCell id="T_bKocLDF5SG0f0tNBpL-174" style="edgeStyle=orthogonalEdgeStyle;rounded=0;orthogonalLoop=1;jettySize=auto;html=1;exitX=0;exitY=0.5;exitDx=0;exitDy=0;entryX=0;entryY=0.5;entryDx=0;entryDy=0;" parent="1" source="T_bKocLDF5SG0f0tNBpL-177" target="T_bKocLDF5SG0f0tNBpL-234" edge="1">
          <mxGeometry relative="1" as="geometry" />
        </mxCell>
        <mxCell id="T_bKocLDF5SG0f0tNBpL-175" style="edgeStyle=orthogonalEdgeStyle;rounded=0;orthogonalLoop=1;jettySize=auto;html=1;exitX=0;exitY=0.5;exitDx=0;exitDy=0;entryX=0;entryY=0.5;entryDx=0;entryDy=0;" parent="1" source="T_bKocLDF5SG0f0tNBpL-177" target="T_bKocLDF5SG0f0tNBpL-238" edge="1">
          <mxGeometry relative="1" as="geometry" />
        </mxCell>
        <mxCell id="T_bKocLDF5SG0f0tNBpL-176" style="edgeStyle=orthogonalEdgeStyle;rounded=0;orthogonalLoop=1;jettySize=auto;html=1;exitX=0;exitY=0.5;exitDx=0;exitDy=0;entryX=0;entryY=0.5;entryDx=0;entryDy=0;" parent="1" source="T_bKocLDF5SG0f0tNBpL-177" target="T_bKocLDF5SG0f0tNBpL-239" edge="1">
          <mxGeometry relative="1" as="geometry" />
        </mxCell>
        <mxCell id="T_bKocLDF5SG0f0tNBpL-177" value="Ingresar Menu ABM" style="ellipse;whiteSpace=wrap;html=1;aspect=fixed;" parent="1" vertex="1">
          <mxGeometry x="5753.715728752539" y="1733" width="130" height="130" as="geometry" />
        </mxCell>
        <mxCell id="T_bKocLDF5SG0f0tNBpL-178" style="edgeStyle=orthogonalEdgeStyle;rounded=0;orthogonalLoop=1;jettySize=auto;html=1;exitX=0;exitY=1;exitDx=0;exitDy=0;entryX=0;entryY=0.5;entryDx=0;entryDy=0;" parent="1" source="T_bKocLDF5SG0f0tNBpL-179" target="T_bKocLDF5SG0f0tNBpL-222" edge="1">
          <mxGeometry relative="1" as="geometry">
            <Array as="points">
              <mxPoint x="5708.715728752539" y="1996" />
              <mxPoint x="5708.715728752539" y="2255" />
            </Array>
          </mxGeometry>
        </mxCell>
        <mxCell id="T_bKocLDF5SG0f0tNBpL-179" value="Ver Segmentos" style="ellipse;whiteSpace=wrap;html=1;aspect=fixed;" parent="1" vertex="1">
          <mxGeometry x="5758.715728752539" y="1885" width="130" height="130" as="geometry" />
        </mxCell>
        <mxCell id="T_bKocLDF5SG0f0tNBpL-180" value="" style="endArrow=none;html=1;rounded=0;" parent="1" edge="1">
          <mxGeometry width="50" height="50" relative="1" as="geometry">
            <mxPoint x="5493.715728752539" y="3800" as="sourcePoint" />
            <mxPoint x="5573.715728752539" y="3800.16" as="targetPoint" />
            <Array as="points">
              <mxPoint x="5493.715728752539" y="3800" />
            </Array>
          </mxGeometry>
        </mxCell>
        <mxCell id="T_bKocLDF5SG0f0tNBpL-181" value="" style="endArrow=none;html=1;rounded=0;" parent="1" edge="1">
          <mxGeometry width="50" height="50" relative="1" as="geometry">
            <mxPoint x="5493.715728752539" y="3830" as="sourcePoint" />
            <mxPoint x="5573.715728752539" y="3830.16" as="targetPoint" />
            <Array as="points">
              <mxPoint x="5493.715728752539" y="3830" />
            </Array>
          </mxGeometry>
        </mxCell>
        <mxCell id="T_bKocLDF5SG0f0tNBpL-182" style="edgeStyle=orthogonalEdgeStyle;rounded=0;orthogonalLoop=1;jettySize=auto;html=1;entryX=0;entryY=1;entryDx=0;entryDy=0;" parent="1" source="T_bKocLDF5SG0f0tNBpL-183" target="T_bKocLDF5SG0f0tNBpL-234" edge="1">
          <mxGeometry relative="1" as="geometry">
            <Array as="points">
              <mxPoint x="5668.715728752539" y="3815" />
              <mxPoint x="5668.715728752539" y="3869" />
            </Array>
          </mxGeometry>
        </mxCell>
        <mxCell id="T_bKocLDF5SG0f0tNBpL-183" value="REPORTES" style="text;html=1;align=center;verticalAlign=middle;resizable=0;points=[];autosize=1;strokeColor=none;fillColor=none;" parent="1" vertex="1">
          <mxGeometry x="5488.715728752539" y="3800" width="90" height="30" as="geometry" />
        </mxCell>
        <mxCell id="T_bKocLDF5SG0f0tNBpL-184" value="" style="endArrow=none;html=1;rounded=0;" parent="1" target="T_bKocLDF5SG0f0tNBpL-186" edge="1">
          <mxGeometry width="50" height="50" relative="1" as="geometry">
            <mxPoint x="5618.715728752539" y="1319.92" as="sourcePoint" />
            <mxPoint x="5698.715728752539" y="1320.08" as="targetPoint" />
            <Array as="points" />
          </mxGeometry>
        </mxCell>
        <mxCell id="T_bKocLDF5SG0f0tNBpL-185" style="edgeStyle=orthogonalEdgeStyle;rounded=0;orthogonalLoop=1;jettySize=auto;html=1;entryX=1;entryY=0;entryDx=0;entryDy=0;" parent="1" source="T_bKocLDF5SG0f0tNBpL-186" target="T_bKocLDF5SG0f0tNBpL-238" edge="1">
          <mxGeometry relative="1" as="geometry">
            <Array as="points">
              <mxPoint x="6068.715728752539" y="1305" />
              <mxPoint x="6068.715728752539" y="2829" />
            </Array>
          </mxGeometry>
        </mxCell>
        <mxCell id="T_bKocLDF5SG0f0tNBpL-186" value="USUARIOS" style="text;html=1;align=center;verticalAlign=middle;resizable=0;points=[];autosize=1;strokeColor=none;fillColor=none;" parent="1" vertex="1">
          <mxGeometry x="5618.715728752539" y="1290" width="90" height="30" as="geometry" />
        </mxCell>
        <mxCell id="T_bKocLDF5SG0f0tNBpL-187" value="" style="endArrow=none;html=1;rounded=0;" parent="1" edge="1">
          <mxGeometry width="50" height="50" relative="1" as="geometry">
            <mxPoint x="5568.715728752539" y="3498" as="sourcePoint" />
            <mxPoint x="5648.715728752539" y="3498.16" as="targetPoint" />
            <Array as="points">
              <mxPoint x="5568.715728752539" y="3498" />
            </Array>
          </mxGeometry>
        </mxCell>
        <mxCell id="T_bKocLDF5SG0f0tNBpL-188" value="" style="endArrow=none;html=1;rounded=0;" parent="1" edge="1">
          <mxGeometry width="50" height="50" relative="1" as="geometry">
            <mxPoint x="5568.715728752539" y="3528" as="sourcePoint" />
            <mxPoint x="5648.715728752539" y="3528.16" as="targetPoint" />
            <Array as="points">
              <mxPoint x="5568.715728752539" y="3528" />
            </Array>
          </mxGeometry>
        </mxCell>
        <mxCell id="T_bKocLDF5SG0f0tNBpL-189" style="edgeStyle=orthogonalEdgeStyle;rounded=0;orthogonalLoop=1;jettySize=auto;html=1;entryX=0;entryY=0;entryDx=0;entryDy=0;" parent="1" source="T_bKocLDF5SG0f0tNBpL-190" target="T_bKocLDF5SG0f0tNBpL-231" edge="1">
          <mxGeometry relative="1" as="geometry">
            <Array as="points">
              <mxPoint x="5608.715728752539" y="3300" />
              <mxPoint x="5698.715728752539" y="3300" />
            </Array>
          </mxGeometry>
        </mxCell>
        <mxCell id="T_bKocLDF5SG0f0tNBpL-190" value="PLATAFORMAS" style="text;html=1;align=center;verticalAlign=middle;resizable=0;points=[];autosize=1;strokeColor=none;fillColor=none;" parent="1" vertex="1">
          <mxGeometry x="5553.715728752539" y="3498" width="110" height="30" as="geometry" />
        </mxCell>
        <mxCell id="T_bKocLDF5SG0f0tNBpL-191" value="" style="endArrow=none;html=1;rounded=0;" parent="1" edge="1">
          <mxGeometry width="50" height="50" relative="1" as="geometry">
            <mxPoint x="5548.715728752539" y="1906.3000000000002" as="sourcePoint" />
            <mxPoint x="5628.715728752539" y="1906.46" as="targetPoint" />
            <Array as="points">
              <mxPoint x="5548.715728752539" y="1906.3000000000002" />
            </Array>
          </mxGeometry>
        </mxCell>
        <mxCell id="T_bKocLDF5SG0f0tNBpL-192" value="" style="endArrow=none;html=1;rounded=0;" parent="1" edge="1">
          <mxGeometry width="50" height="50" relative="1" as="geometry">
            <mxPoint x="5548.715728752539" y="1926.46" as="sourcePoint" />
            <mxPoint x="5628.715728752539" y="1926.62" as="targetPoint" />
            <Array as="points">
              <mxPoint x="5548.715728752539" y="1926.46" />
            </Array>
          </mxGeometry>
        </mxCell>
        <mxCell id="T_bKocLDF5SG0f0tNBpL-193" style="edgeStyle=orthogonalEdgeStyle;rounded=0;orthogonalLoop=1;jettySize=auto;html=1;entryX=0.994;entryY=0.556;entryDx=0;entryDy=0;entryPerimeter=0;" parent="1" source="T_bKocLDF5SG0f0tNBpL-195" target="T_bKocLDF5SG0f0tNBpL-196" edge="1">
          <mxGeometry relative="1" as="geometry">
            <Array as="points">
              <mxPoint x="5598.715728752539" y="2077" />
            </Array>
          </mxGeometry>
        </mxCell>
        <mxCell id="T_bKocLDF5SG0f0tNBpL-194" style="edgeStyle=orthogonalEdgeStyle;rounded=0;orthogonalLoop=1;jettySize=auto;html=1;entryX=1;entryY=0.5;entryDx=0;entryDy=0;" parent="1" source="T_bKocLDF5SG0f0tNBpL-195" target="T_bKocLDF5SG0f0tNBpL-215" edge="1">
          <mxGeometry relative="1" as="geometry">
            <Array as="points">
              <mxPoint x="5588.715728752539" y="2770" />
              <mxPoint x="4858.715728752539" y="2770" />
              <mxPoint x="4858.715728752539" y="1778" />
            </Array>
          </mxGeometry>
        </mxCell>
        <mxCell id="T_bKocLDF5SG0f0tNBpL-195" value="EMISION" style="text;html=1;align=center;verticalAlign=middle;resizable=0;points=[];autosize=1;strokeColor=none;fillColor=none;" parent="1" vertex="1">
          <mxGeometry x="5553.715728752539" y="1905" width="70" height="30" as="geometry" />
        </mxCell>
        <mxCell id="T_bKocLDF5SG0f0tNBpL-196" value="Ver Emisiones" style="ellipse;whiteSpace=wrap;html=1;aspect=fixed;" parent="1" vertex="1">
          <mxGeometry x="5333.715728752539" y="2005" width="130" height="130" as="geometry" />
        </mxCell>
        <mxCell id="T_bKocLDF5SG0f0tNBpL-197" value="" style="endArrow=none;html=1;rounded=0;" parent="1" edge="1">
          <mxGeometry width="50" height="50" relative="1" as="geometry">
            <mxPoint x="5958.715728752539" y="1915" as="sourcePoint" />
            <mxPoint x="6038.715728752539" y="1915.1599999999999" as="targetPoint" />
            <Array as="points">
              <mxPoint x="5958.715728752539" y="1915" />
            </Array>
          </mxGeometry>
        </mxCell>
        <mxCell id="T_bKocLDF5SG0f0tNBpL-198" value="" style="endArrow=none;html=1;rounded=0;" parent="1" edge="1">
          <mxGeometry width="50" height="50" relative="1" as="geometry">
            <mxPoint x="5958.715728752539" y="1945" as="sourcePoint" />
            <mxPoint x="6038.715728752539" y="1945.1599999999999" as="targetPoint" />
            <Array as="points">
              <mxPoint x="5958.715728752539" y="1945" />
            </Array>
          </mxGeometry>
        </mxCell>
        <mxCell id="T_bKocLDF5SG0f0tNBpL-199" style="edgeStyle=orthogonalEdgeStyle;rounded=0;orthogonalLoop=1;jettySize=auto;html=1;entryX=1;entryY=0;entryDx=0;entryDy=0;" parent="1" source="T_bKocLDF5SG0f0tNBpL-200" target="T_bKocLDF5SG0f0tNBpL-179" edge="1">
          <mxGeometry relative="1" as="geometry">
            <Array as="points">
              <mxPoint x="5998.715728752539" y="1895" />
              <mxPoint x="5869.715728752539" y="1895" />
            </Array>
          </mxGeometry>
        </mxCell>
        <mxCell id="T_bKocLDF5SG0f0tNBpL-200" value="SEGMENTOS" style="text;html=1;align=center;verticalAlign=middle;resizable=0;points=[];autosize=1;strokeColor=none;fillColor=none;" parent="1" vertex="1">
          <mxGeometry x="5948.715728752539" y="1915" width="100" height="30" as="geometry" />
        </mxCell>
        <mxCell id="T_bKocLDF5SG0f0tNBpL-201" value="" style="edgeStyle=orthogonalEdgeStyle;rounded=0;orthogonalLoop=1;jettySize=auto;html=1;exitX=0.5;exitY=1;exitDx=0;exitDy=0;" parent="1" source="T_bKocLDF5SG0f0tNBpL-136" target="T_bKocLDF5SG0f0tNBpL-205" edge="1">
          <mxGeometry relative="1" as="geometry">
            <mxPoint x="5393.715728752539" y="1385" as="sourcePoint" />
            <mxPoint x="5818.715728752539" y="1605" as="targetPoint" />
          </mxGeometry>
        </mxCell>
        <mxCell id="T_bKocLDF5SG0f0tNBpL-202" style="edgeStyle=orthogonalEdgeStyle;rounded=0;orthogonalLoop=1;jettySize=auto;html=1;exitX=0;exitY=0.5;exitDx=0;exitDy=0;" parent="1" source="T_bKocLDF5SG0f0tNBpL-205" target="T_bKocLDF5SG0f0tNBpL-145" edge="1">
          <mxGeometry relative="1" as="geometry" />
        </mxCell>
        <mxCell id="T_bKocLDF5SG0f0tNBpL-203" style="edgeStyle=orthogonalEdgeStyle;rounded=0;orthogonalLoop=1;jettySize=auto;html=1;exitX=0.5;exitY=1;exitDx=0;exitDy=0;entryX=0.5;entryY=0;entryDx=0;entryDy=0;" parent="1" source="T_bKocLDF5SG0f0tNBpL-205" target="T_bKocLDF5SG0f0tNBpL-149" edge="1">
          <mxGeometry relative="1" as="geometry" />
        </mxCell>
        <mxCell id="T_bKocLDF5SG0f0tNBpL-204" style="edgeStyle=orthogonalEdgeStyle;rounded=0;orthogonalLoop=1;jettySize=auto;html=1;exitX=0;exitY=0;exitDx=0;exitDy=0;entryX=0.5;entryY=0;entryDx=0;entryDy=0;" parent="1" source="T_bKocLDF5SG0f0tNBpL-205" target="T_bKocLDF5SG0f0tNBpL-213" edge="1">
          <mxGeometry relative="1" as="geometry" />
        </mxCell>
        <mxCell id="T_bKocLDF5SG0f0tNBpL-205" value="Identificar Rol" style="ellipse;whiteSpace=wrap;html=1;aspect=fixed;" parent="1" vertex="1">
          <mxGeometry x="5328.715728752539" y="1425" width="130" height="130" as="geometry" />
        </mxCell>
        <mxCell id="T_bKocLDF5SG0f0tNBpL-206" value="" style="endArrow=none;html=1;rounded=0;" parent="1" edge="1">
          <mxGeometry width="50" height="50" relative="1" as="geometry">
            <mxPoint x="6248.715728752539" y="1285" as="sourcePoint" />
            <mxPoint x="6328.715728752539" y="1285.1599999999999" as="targetPoint" />
            <Array as="points">
              <mxPoint x="6248.715728752539" y="1285" />
            </Array>
          </mxGeometry>
        </mxCell>
        <mxCell id="T_bKocLDF5SG0f0tNBpL-207" value="" style="endArrow=none;html=1;rounded=0;" parent="1" edge="1">
          <mxGeometry width="50" height="50" relative="1" as="geometry">
            <mxPoint x="6248.715728752539" y="1315" as="sourcePoint" />
            <mxPoint x="6328.715728752539" y="1315.1599999999999" as="targetPoint" />
            <Array as="points">
              <mxPoint x="6248.715728752539" y="1315" />
            </Array>
          </mxGeometry>
        </mxCell>
        <mxCell id="T_bKocLDF5SG0f0tNBpL-208" style="edgeStyle=orthogonalEdgeStyle;rounded=0;orthogonalLoop=1;jettySize=auto;html=1;entryX=1;entryY=0.5;entryDx=0;entryDy=0;" parent="1" source="T_bKocLDF5SG0f0tNBpL-209" target="T_bKocLDF5SG0f0tNBpL-238" edge="1">
          <mxGeometry relative="1" as="geometry">
            <Array as="points">
              <mxPoint x="6118.715728752539" y="1300" />
              <mxPoint x="6118.715728752539" y="2875" />
            </Array>
          </mxGeometry>
        </mxCell>
        <mxCell id="T_bKocLDF5SG0f0tNBpL-209" value="ROLES" style="text;html=1;align=center;verticalAlign=middle;resizable=0;points=[];autosize=1;strokeColor=none;fillColor=none;" parent="1" vertex="1">
          <mxGeometry x="6258.715728752539" y="1285" width="60" height="30" as="geometry" />
        </mxCell>
        <mxCell id="T_bKocLDF5SG0f0tNBpL-210" style="edgeStyle=orthogonalEdgeStyle;rounded=0;orthogonalLoop=1;jettySize=auto;html=1;entryX=0.923;entryY=0.192;entryDx=0;entryDy=0;entryPerimeter=0;" parent="1" source="T_bKocLDF5SG0f0tNBpL-209" target="T_bKocLDF5SG0f0tNBpL-205" edge="1">
          <mxGeometry relative="1" as="geometry">
            <Array as="points">
              <mxPoint x="6218.715728752539" y="1300" />
              <mxPoint x="6218.715728752539" y="1405" />
              <mxPoint x="5448.715728752539" y="1405" />
            </Array>
          </mxGeometry>
        </mxCell>
        <mxCell id="T_bKocLDF5SG0f0tNBpL-211" style="edgeStyle=orthogonalEdgeStyle;rounded=0;orthogonalLoop=1;jettySize=auto;html=1;exitX=0.5;exitY=1;exitDx=0;exitDy=0;entryX=0.5;entryY=0;entryDx=0;entryDy=0;" parent="1" source="T_bKocLDF5SG0f0tNBpL-213" target="T_bKocLDF5SG0f0tNBpL-215" edge="1">
          <mxGeometry relative="1" as="geometry" />
        </mxCell>
        <mxCell id="T_bKocLDF5SG0f0tNBpL-212" style="edgeStyle=orthogonalEdgeStyle;rounded=0;orthogonalLoop=1;jettySize=auto;html=1;exitX=0;exitY=0.5;exitDx=0;exitDy=0;" parent="1" source="T_bKocLDF5SG0f0tNBpL-213" target="T_bKocLDF5SG0f0tNBpL-279" edge="1">
          <mxGeometry relative="1" as="geometry" />
        </mxCell>
        <mxCell id="T_bKocLDF5SG0f0tNBpL-213" value="Espectador" style="rounded=0;whiteSpace=wrap;html=1;" parent="1" vertex="1">
          <mxGeometry x="4673.715728752539" y="1605" width="120" height="60" as="geometry" />
        </mxCell>
        <mxCell id="T_bKocLDF5SG0f0tNBpL-214" style="edgeStyle=orthogonalEdgeStyle;rounded=0;orthogonalLoop=1;jettySize=auto;html=1;exitX=0.5;exitY=1;exitDx=0;exitDy=0;entryX=0.5;entryY=0;entryDx=0;entryDy=0;" parent="1" source="T_bKocLDF5SG0f0tNBpL-215" target="T_bKocLDF5SG0f0tNBpL-217" edge="1">
          <mxGeometry relative="1" as="geometry" />
        </mxCell>
        <mxCell id="T_bKocLDF5SG0f0tNBpL-215" value="ver Programa en vivo" style="ellipse;whiteSpace=wrap;html=1;aspect=fixed;" parent="1" vertex="1">
          <mxGeometry x="4668.715728752539" y="1713" width="130" height="130" as="geometry" />
        </mxCell>
        <mxCell id="T_bKocLDF5SG0f0tNBpL-216" style="edgeStyle=orthogonalEdgeStyle;rounded=0;orthogonalLoop=1;jettySize=auto;html=1;exitX=1;exitY=0;exitDx=0;exitDy=0;entryX=0.3;entryY=0.942;entryDx=0;entryDy=0;entryPerimeter=0;" parent="1" source="T_bKocLDF5SG0f0tNBpL-152" target="T_bKocLDF5SG0f0tNBpL-157" edge="1">
          <mxGeometry relative="1" as="geometry" />
        </mxCell>
        <mxCell id="T_bKocLDF5SG0f0tNBpL-217" value="Valorar" style="ellipse;whiteSpace=wrap;html=1;aspect=fixed;" parent="1" vertex="1">
          <mxGeometry x="4668.715728752539" y="1915" width="130" height="130" as="geometry" />
        </mxCell>
        <mxCell id="T_bKocLDF5SG0f0tNBpL-218" style="edgeStyle=orthogonalEdgeStyle;rounded=0;orthogonalLoop=1;jettySize=auto;html=1;entryX=0.5;entryY=0.042;entryDx=0;entryDy=0;entryPerimeter=0;" parent="1" source="T_bKocLDF5SG0f0tNBpL-165" target="T_bKocLDF5SG0f0tNBpL-195" edge="1">
          <mxGeometry relative="1" as="geometry">
            <Array as="points">
              <mxPoint x="5588.715728752539" y="1785" />
              <mxPoint x="5588.715728752539" y="1785" />
            </Array>
          </mxGeometry>
        </mxCell>
        <mxCell id="T_bKocLDF5SG0f0tNBpL-219" style="edgeStyle=orthogonalEdgeStyle;rounded=0;orthogonalLoop=1;jettySize=auto;html=1;entryX=0.556;entryY=0;entryDx=0;entryDy=0;entryPerimeter=0;" parent="1" source="T_bKocLDF5SG0f0tNBpL-217" target="T_bKocLDF5SG0f0tNBpL-183" edge="1">
          <mxGeometry relative="1" as="geometry">
            <Array as="points">
              <mxPoint x="4728.715728752539" y="3260" />
              <mxPoint x="5538.715728752539" y="3260" />
            </Array>
          </mxGeometry>
        </mxCell>
        <mxCell id="T_bKocLDF5SG0f0tNBpL-220" value="AÃ±adir Segmentos" style="ellipse;whiteSpace=wrap;html=1;aspect=fixed;" parent="1" vertex="1">
          <mxGeometry x="5758.715728752539" y="2030" width="130" height="130" as="geometry" />
        </mxCell>
        <mxCell id="T_bKocLDF5SG0f0tNBpL-221" style="edgeStyle=orthogonalEdgeStyle;rounded=0;orthogonalLoop=1;jettySize=auto;html=1;entryX=0.514;entryY=1.143;entryDx=0;entryDy=0;entryPerimeter=0;" parent="1" source="T_bKocLDF5SG0f0tNBpL-220" target="T_bKocLDF5SG0f0tNBpL-200" edge="1">
          <mxGeometry relative="1" as="geometry" />
        </mxCell>
        <mxCell id="T_bKocLDF5SG0f0tNBpL-222" value="Modificar Segmentos" style="ellipse;whiteSpace=wrap;html=1;aspect=fixed;" parent="1" vertex="1">
          <mxGeometry x="5758.715728752539" y="2190" width="130" height="130" as="geometry" />
        </mxCell>
        <mxCell id="T_bKocLDF5SG0f0tNBpL-223" style="edgeStyle=orthogonalEdgeStyle;rounded=0;orthogonalLoop=1;jettySize=auto;html=1;exitX=1;exitY=0;exitDx=0;exitDy=0;entryX=0.702;entryY=1.143;entryDx=0;entryDy=0;entryPerimeter=0;" parent="1" source="T_bKocLDF5SG0f0tNBpL-222" target="T_bKocLDF5SG0f0tNBpL-200" edge="1">
          <mxGeometry relative="1" as="geometry" />
        </mxCell>
        <mxCell id="T_bKocLDF5SG0f0tNBpL-224" value="Ver Programa" style="ellipse;whiteSpace=wrap;html=1;aspect=fixed;" parent="1" vertex="1">
          <mxGeometry x="5758.715728752539" y="2350" width="130" height="130" as="geometry" />
        </mxCell>
        <mxCell id="T_bKocLDF5SG0f0tNBpL-225" value="AÃ±adir Programa" style="ellipse;whiteSpace=wrap;html=1;aspect=fixed;" parent="1" vertex="1">
          <mxGeometry x="5758.715728752539" y="2495" width="130" height="130" as="geometry" />
        </mxCell>
        <mxCell id="T_bKocLDF5SG0f0tNBpL-226" value="Modificar Programa" style="ellipse;whiteSpace=wrap;html=1;aspect=fixed;" parent="1" vertex="1">
          <mxGeometry x="5758.715728752539" y="2655" width="130" height="130" as="geometry" />
        </mxCell>
        <mxCell id="T_bKocLDF5SG0f0tNBpL-227" style="edgeStyle=orthogonalEdgeStyle;rounded=0;orthogonalLoop=1;jettySize=auto;html=1;exitX=0;exitY=1;exitDx=0;exitDy=0;entryX=0.025;entryY=0.033;entryDx=0;entryDy=0;entryPerimeter=0;" parent="1" source="T_bKocLDF5SG0f0tNBpL-224" target="T_bKocLDF5SG0f0tNBpL-165" edge="1">
          <mxGeometry relative="1" as="geometry">
            <Array as="points">
              <mxPoint x="5698.715728752539" y="2460" />
              <mxPoint x="5698.715728752539" y="1713" />
              <mxPoint x="5505.715728752539" y="1713" />
            </Array>
          </mxGeometry>
        </mxCell>
        <mxCell id="T_bKocLDF5SG0f0tNBpL-228" style="edgeStyle=orthogonalEdgeStyle;rounded=0;orthogonalLoop=1;jettySize=auto;html=1;exitX=0;exitY=1;exitDx=0;exitDy=0;entryX=0.195;entryY=0.033;entryDx=0;entryDy=0;entryPerimeter=0;" parent="1" source="T_bKocLDF5SG0f0tNBpL-225" target="T_bKocLDF5SG0f0tNBpL-165" edge="1">
          <mxGeometry relative="1" as="geometry">
            <Array as="points">
              <mxPoint x="5688.715728752539" y="2606" />
              <mxPoint x="5688.715728752539" y="1720" />
              <mxPoint x="5521.715728752539" y="1720" />
            </Array>
          </mxGeometry>
        </mxCell>
        <mxCell id="T_bKocLDF5SG0f0tNBpL-229" style="edgeStyle=orthogonalEdgeStyle;rounded=0;orthogonalLoop=1;jettySize=auto;html=1;exitX=0;exitY=0.5;exitDx=0;exitDy=0;entryX=0.627;entryY=-0.006;entryDx=0;entryDy=0;entryPerimeter=0;" parent="1" source="T_bKocLDF5SG0f0tNBpL-226" target="T_bKocLDF5SG0f0tNBpL-165" edge="1">
          <mxGeometry relative="1" as="geometry">
            <Array as="points">
              <mxPoint x="5676.715728752539" y="2720" />
              <mxPoint x="5676.715728752539" y="1730" />
              <mxPoint x="5559.715728752539" y="1730" />
            </Array>
          </mxGeometry>
        </mxCell>
        <mxCell id="T_bKocLDF5SG0f0tNBpL-230" style="edgeStyle=orthogonalEdgeStyle;rounded=0;orthogonalLoop=1;jettySize=auto;html=1;exitX=1;exitY=0.5;exitDx=0;exitDy=0;entryX=1.006;entryY=0.562;entryDx=0;entryDy=0;entryPerimeter=0;" parent="1" source="T_bKocLDF5SG0f0tNBpL-224" target="T_bKocLDF5SG0f0tNBpL-226" edge="1">
          <mxGeometry relative="1" as="geometry" />
        </mxCell>
        <mxCell id="T_bKocLDF5SG0f0tNBpL-231" value="Ver Plataformas" style="ellipse;whiteSpace=wrap;html=1;aspect=fixed;" parent="1" vertex="1">
          <mxGeometry x="5758.715728752539" y="3280" width="130" height="130" as="geometry" />
        </mxCell>
        <mxCell id="T_bKocLDF5SG0f0tNBpL-232" value="AÃ±adir Plataformas" style="ellipse;whiteSpace=wrap;html=1;aspect=fixed;" parent="1" vertex="1">
          <mxGeometry x="5758.715728752539" y="3430" width="130" height="130" as="geometry" />
        </mxCell>
        <mxCell id="T_bKocLDF5SG0f0tNBpL-233" value="Modificar Plataforma" style="ellipse;whiteSpace=wrap;html=1;aspect=fixed;" parent="1" vertex="1">
          <mxGeometry x="5758.715728752539" y="3590" width="130" height="130" as="geometry" />
        </mxCell>
        <mxCell id="T_bKocLDF5SG0f0tNBpL-234" value="Reportes de audiencia" style="ellipse;whiteSpace=wrap;html=1;aspect=fixed;" parent="1" vertex="1">
          <mxGeometry x="5753.715728752539" y="3758" width="130" height="130" as="geometry" />
        </mxCell>
        <mxCell id="T_bKocLDF5SG0f0tNBpL-235" style="edgeStyle=orthogonalEdgeStyle;rounded=0;orthogonalLoop=1;jettySize=auto;html=1;exitX=0;exitY=0;exitDx=0;exitDy=0;entryX=0.6;entryY=0.033;entryDx=0;entryDy=0;entryPerimeter=0;" parent="1" source="T_bKocLDF5SG0f0tNBpL-232" target="T_bKocLDF5SG0f0tNBpL-190" edge="1">
          <mxGeometry relative="1" as="geometry" />
        </mxCell>
        <mxCell id="T_bKocLDF5SG0f0tNBpL-236" style="edgeStyle=orthogonalEdgeStyle;rounded=0;orthogonalLoop=1;jettySize=auto;html=1;exitX=1;exitY=0.5;exitDx=0;exitDy=0;entryX=1;entryY=0.569;entryDx=0;entryDy=0;entryPerimeter=0;" parent="1" source="T_bKocLDF5SG0f0tNBpL-231" target="T_bKocLDF5SG0f0tNBpL-233" edge="1">
          <mxGeometry relative="1" as="geometry" />
        </mxCell>
        <mxCell id="T_bKocLDF5SG0f0tNBpL-237" style="edgeStyle=orthogonalEdgeStyle;rounded=0;orthogonalLoop=1;jettySize=auto;html=1;exitX=0;exitY=0.5;exitDx=0;exitDy=0;entryX=0.609;entryY=1.033;entryDx=0;entryDy=0;entryPerimeter=0;" parent="1" source="T_bKocLDF5SG0f0tNBpL-233" target="T_bKocLDF5SG0f0tNBpL-190" edge="1">
          <mxGeometry relative="1" as="geometry" />
        </mxCell>
        <mxCell id="T_bKocLDF5SG0f0tNBpL-238" value="Ver Usuarios" style="ellipse;whiteSpace=wrap;html=1;aspect=fixed;" parent="1" vertex="1">
          <mxGeometry x="5753.715728752539" y="2810" width="130" height="130" as="geometry" />
        </mxCell>
        <mxCell id="T_bKocLDF5SG0f0tNBpL-239" value="AÃ±adir Usuarios" style="ellipse;whiteSpace=wrap;html=1;aspect=fixed;" parent="1" vertex="1">
          <mxGeometry x="5753.715728752539" y="2955" width="130" height="130" as="geometry" />
        </mxCell>
        <mxCell id="T_bKocLDF5SG0f0tNBpL-240" value="Modificar Usuarios" style="ellipse;whiteSpace=wrap;html=1;aspect=fixed;" parent="1" vertex="1">
          <mxGeometry x="5753.715728752539" y="3115" width="130" height="130" as="geometry" />
        </mxCell>
        <mxCell id="T_bKocLDF5SG0f0tNBpL-241" style="edgeStyle=orthogonalEdgeStyle;rounded=0;orthogonalLoop=1;jettySize=auto;html=1;exitX=1;exitY=1;exitDx=0;exitDy=0;entryX=1.006;entryY=0.562;entryDx=0;entryDy=0;entryPerimeter=0;" parent="1" source="T_bKocLDF5SG0f0tNBpL-238" target="T_bKocLDF5SG0f0tNBpL-240" edge="1">
          <mxGeometry relative="1" as="geometry">
            <Array as="points">
              <mxPoint x="5898.715728752539" y="2921" />
              <mxPoint x="5898.715728752539" y="3027" />
              <mxPoint x="5903.715728752539" y="3027" />
              <mxPoint x="5903.715728752539" y="3188" />
            </Array>
          </mxGeometry>
        </mxCell>
        <mxCell id="T_bKocLDF5SG0f0tNBpL-242" style="edgeStyle=orthogonalEdgeStyle;rounded=0;orthogonalLoop=1;jettySize=auto;html=1;exitX=1;exitY=1;exitDx=0;exitDy=0;entryX=0.787;entryY=1.154;entryDx=0;entryDy=0;entryPerimeter=0;" parent="1" source="T_bKocLDF5SG0f0tNBpL-85" target="T_bKocLDF5SG0f0tNBpL-116" edge="1">
          <mxGeometry relative="1" as="geometry" />
        </mxCell>
        <mxCell id="T_bKocLDF5SG0f0tNBpL-243" style="edgeStyle=orthogonalEdgeStyle;rounded=0;orthogonalLoop=1;jettySize=auto;html=1;entryX=0.995;entryY=0.36;entryDx=0;entryDy=0;entryPerimeter=0;" parent="1" source="T_bKocLDF5SG0f0tNBpL-116" target="T_bKocLDF5SG0f0tNBpL-85" edge="1">
          <mxGeometry relative="1" as="geometry">
            <Array as="points">
              <mxPoint x="4128.715728752539" y="1265" />
              <mxPoint x="4128.715728752539" y="2187" />
            </Array>
          </mxGeometry>
        </mxCell>
        <mxCell id="T_bKocLDF5SG0f0tNBpL-244" style="edgeStyle=orthogonalEdgeStyle;rounded=0;orthogonalLoop=1;jettySize=auto;html=1;exitX=1;exitY=0;exitDx=0;exitDy=0;entryX=0.313;entryY=1.005;entryDx=0;entryDy=0;entryPerimeter=0;" parent="1" source="T_bKocLDF5SG0f0tNBpL-239" target="T_bKocLDF5SG0f0tNBpL-209" edge="1">
          <mxGeometry relative="1" as="geometry" />
        </mxCell>
        <mxCell id="T_bKocLDF5SG0f0tNBpL-245" style="edgeStyle=orthogonalEdgeStyle;rounded=0;orthogonalLoop=1;jettySize=auto;html=1;exitX=1;exitY=0.5;exitDx=0;exitDy=0;entryX=0.314;entryY=-0.004;entryDx=0;entryDy=0;entryPerimeter=0;" parent="1" source="T_bKocLDF5SG0f0tNBpL-239" target="T_bKocLDF5SG0f0tNBpL-186" edge="1">
          <mxGeometry relative="1" as="geometry">
            <Array as="points">
              <mxPoint x="6438.715728752539" y="3020" />
              <mxPoint x="6438.715728752539" y="1270" />
              <mxPoint x="5646.715728752539" y="1270" />
            </Array>
          </mxGeometry>
        </mxCell>
        <mxCell id="T_bKocLDF5SG0f0tNBpL-246" style="edgeStyle=orthogonalEdgeStyle;rounded=0;orthogonalLoop=1;jettySize=auto;html=1;exitX=1;exitY=0;exitDx=0;exitDy=0;entryX=0.927;entryY=0.97;entryDx=0;entryDy=0;entryPerimeter=0;" parent="1" source="T_bKocLDF5SG0f0tNBpL-240" target="T_bKocLDF5SG0f0tNBpL-209" edge="1">
          <mxGeometry relative="1" as="geometry" />
        </mxCell>
        <mxCell id="T_bKocLDF5SG0f0tNBpL-247" style="edgeStyle=orthogonalEdgeStyle;rounded=0;orthogonalLoop=1;jettySize=auto;html=1;exitX=1;exitY=1;exitDx=0;exitDy=0;entryX=0.583;entryY=-0.004;entryDx=0;entryDy=0;entryPerimeter=0;" parent="1" source="T_bKocLDF5SG0f0tNBpL-240" target="T_bKocLDF5SG0f0tNBpL-186" edge="1">
          <mxGeometry relative="1" as="geometry">
            <Array as="points">
              <mxPoint x="6378.715728752539" y="3226" />
              <mxPoint x="6378.715728752539" y="1280" />
              <mxPoint x="5670.715728752539" y="1280" />
            </Array>
          </mxGeometry>
        </mxCell>
        <mxCell id="T_bKocLDF5SG0f0tNBpL-248" style="edgeStyle=orthogonalEdgeStyle;rounded=0;orthogonalLoop=1;jettySize=auto;html=1;exitX=1;exitY=0;exitDx=0;exitDy=0;entryX=0.038;entryY=0.539;entryDx=0;entryDy=0;entryPerimeter=0;" parent="1" source="T_bKocLDF5SG0f0tNBpL-51" target="T_bKocLDF5SG0f0tNBpL-57" edge="1">
          <mxGeometry relative="1" as="geometry" />
        </mxCell>
        <mxCell id="T_bKocLDF5SG0f0tNBpL-249" style="edgeStyle=orthogonalEdgeStyle;rounded=0;orthogonalLoop=1;jettySize=auto;html=1;exitX=1;exitY=1;exitDx=0;exitDy=0;entryX=0.718;entryY=0.994;entryDx=0;entryDy=0;entryPerimeter=0;" parent="1" source="T_bKocLDF5SG0f0tNBpL-32" target="T_bKocLDF5SG0f0tNBpL-61" edge="1">
          <mxGeometry relative="1" as="geometry" />
        </mxCell>
        <mxCell id="T_bKocLDF5SG0f0tNBpL-250" style="edgeStyle=orthogonalEdgeStyle;rounded=0;orthogonalLoop=1;jettySize=auto;html=1;exitX=1;exitY=1;exitDx=0;exitDy=0;" parent="1" source="T_bKocLDF5SG0f0tNBpL-251" target="T_bKocLDF5SG0f0tNBpL-157" edge="1">
          <mxGeometry relative="1" as="geometry" />
        </mxCell>
        <mxCell id="T_bKocLDF5SG0f0tNBpL-251" value="Modificar contenido" style="ellipse;whiteSpace=wrap;html=1;aspect=fixed;" parent="1" vertex="1">
          <mxGeometry x="4948.715728752539" y="2020" width="130" height="130" as="geometry" />
        </mxCell>
        <mxCell id="T_bKocLDF5SG0f0tNBpL-252" style="edgeStyle=orthogonalEdgeStyle;rounded=0;orthogonalLoop=1;jettySize=auto;html=1;entryX=0.923;entryY=0.346;entryDx=0;entryDy=0;entryPerimeter=0;" parent="1" source="T_bKocLDF5SG0f0tNBpL-157" target="T_bKocLDF5SG0f0tNBpL-131" edge="1">
          <mxGeometry relative="1" as="geometry" />
        </mxCell>
        <mxCell id="T_bKocLDF5SG0f0tNBpL-253" style="edgeStyle=orthogonalEdgeStyle;rounded=0;orthogonalLoop=1;jettySize=auto;html=1;exitX=1;exitY=1;exitDx=0;exitDy=0;entryX=1;entryY=0.5;entryDx=0;entryDy=0;" parent="1" source="T_bKocLDF5SG0f0tNBpL-254" target="T_bKocLDF5SG0f0tNBpL-257" edge="1">
          <mxGeometry relative="1" as="geometry">
            <Array as="points">
              <mxPoint x="5098.715728752539" y="2271" />
              <mxPoint x="5098.715728752539" y="2520" />
            </Array>
          </mxGeometry>
        </mxCell>
        <mxCell id="T_bKocLDF5SG0f0tNBpL-254" value="Ver Estados" style="ellipse;whiteSpace=wrap;html=1;aspect=fixed;" parent="1" vertex="1">
          <mxGeometry x="4948.715728752539" y="2160" width="130" height="130" as="geometry" />
        </mxCell>
        <mxCell id="T_bKocLDF5SG0f0tNBpL-255" style="edgeStyle=orthogonalEdgeStyle;rounded=0;orthogonalLoop=1;jettySize=auto;html=1;exitX=1;exitY=0.5;exitDx=0;exitDy=0;" parent="1" source="T_bKocLDF5SG0f0tNBpL-256" target="T_bKocLDF5SG0f0tNBpL-261" edge="1">
          <mxGeometry relative="1" as="geometry" />
        </mxCell>
        <mxCell id="T_bKocLDF5SG0f0tNBpL-256" value="AÃ±adir Estado" style="ellipse;whiteSpace=wrap;html=1;aspect=fixed;" parent="1" vertex="1">
          <mxGeometry x="4948.715728752539" y="2310" width="130" height="130" as="geometry" />
        </mxCell>
        <mxCell id="T_bKocLDF5SG0f0tNBpL-257" value="Modificar Estado" style="ellipse;whiteSpace=wrap;html=1;aspect=fixed;" parent="1" vertex="1">
          <mxGeometry x="4948.715728752539" y="2455" width="130" height="130" as="geometry" />
        </mxCell>
        <mxCell id="T_bKocLDF5SG0f0tNBpL-258" value="" style="endArrow=none;html=1;rounded=0;" parent="1" edge="1">
          <mxGeometry width="50" height="50" relative="1" as="geometry">
            <mxPoint x="5138.715728752539" y="2252" as="sourcePoint" />
            <mxPoint x="5218.715728752539" y="2252.16" as="targetPoint" />
            <Array as="points">
              <mxPoint x="5138.715728752539" y="2252" />
            </Array>
          </mxGeometry>
        </mxCell>
        <mxCell id="T_bKocLDF5SG0f0tNBpL-259" value="" style="endArrow=none;html=1;rounded=0;" parent="1" edge="1">
          <mxGeometry width="50" height="50" relative="1" as="geometry">
            <mxPoint x="5138.715728752539" y="2272.16" as="sourcePoint" />
            <mxPoint x="5218.715728752539" y="2272.32" as="targetPoint" />
            <Array as="points">
              <mxPoint x="5138.715728752539" y="2272.16" />
            </Array>
          </mxGeometry>
        </mxCell>
        <mxCell id="T_bKocLDF5SG0f0tNBpL-260" style="edgeStyle=orthogonalEdgeStyle;rounded=0;orthogonalLoop=1;jettySize=auto;html=1;" parent="1" source="T_bKocLDF5SG0f0tNBpL-261" target="T_bKocLDF5SG0f0tNBpL-254" edge="1">
          <mxGeometry relative="1" as="geometry" />
        </mxCell>
        <mxCell id="T_bKocLDF5SG0f0tNBpL-261" value="ESTADOS" style="text;html=1;align=center;verticalAlign=middle;resizable=0;points=[];autosize=1;strokeColor=none;fillColor=none;" parent="1" vertex="1">
          <mxGeometry x="5138.715728752539" y="2250" width="80" height="30" as="geometry" />
        </mxCell>
        <mxCell id="T_bKocLDF5SG0f0tNBpL-262" style="edgeStyle=orthogonalEdgeStyle;rounded=0;orthogonalLoop=1;jettySize=auto;html=1;exitX=1;exitY=1;exitDx=0;exitDy=0;entryX=0.832;entryY=0.988;entryDx=0;entryDy=0;entryPerimeter=0;" parent="1" source="T_bKocLDF5SG0f0tNBpL-257" target="T_bKocLDF5SG0f0tNBpL-261" edge="1">
          <mxGeometry relative="1" as="geometry" />
        </mxCell>
        <mxCell id="T_bKocLDF5SG0f0tNBpL-263" style="edgeStyle=orthogonalEdgeStyle;rounded=0;orthogonalLoop=1;jettySize=auto;html=1;exitX=0;exitY=0.5;exitDx=0;exitDy=0;entryX=0.008;entryY=0.55;entryDx=0;entryDy=0;entryPerimeter=0;" parent="1" source="T_bKocLDF5SG0f0tNBpL-145" target="T_bKocLDF5SG0f0tNBpL-132" edge="1">
          <mxGeometry relative="1" as="geometry" />
        </mxCell>
        <mxCell id="T_bKocLDF5SG0f0tNBpL-264" value="0" style="text;html=1;align=center;verticalAlign=middle;resizable=0;points=[];autosize=1;strokeColor=none;fillColor=none;" parent="1" vertex="1">
          <mxGeometry x="1383.7157287525388" y="1270" width="30" height="30" as="geometry" />
        </mxCell>
        <mxCell id="T_bKocLDF5SG0f0tNBpL-265" value="1" style="text;html=1;align=center;verticalAlign=middle;resizable=0;points=[];autosize=1;strokeColor=none;fillColor=none;" parent="1" vertex="1">
          <mxGeometry x="2178.715728752539" y="1250" width="30" height="30" as="geometry" />
        </mxCell>
        <mxCell id="T_bKocLDF5SG0f0tNBpL-266" value="1" style="text;html=1;align=center;verticalAlign=middle;resizable=0;points=[];autosize=1;strokeColor=none;fillColor=none;" parent="1" vertex="1">
          <mxGeometry x="2178.715728752539" y="1460" width="30" height="30" as="geometry" />
        </mxCell>
        <mxCell id="T_bKocLDF5SG0f0tNBpL-267" value="1" style="text;html=1;align=center;verticalAlign=middle;resizable=0;points=[];autosize=1;strokeColor=none;fillColor=none;" parent="1" vertex="1">
          <mxGeometry x="2178.715728752539" y="1630" width="30" height="30" as="geometry" />
        </mxCell>
        <mxCell id="T_bKocLDF5SG0f0tNBpL-268" value="1" style="text;html=1;align=center;verticalAlign=middle;resizable=0;points=[];autosize=1;strokeColor=none;fillColor=none;" parent="1" vertex="1">
          <mxGeometry x="2178.715728752539" y="1798" width="30" height="30" as="geometry" />
        </mxCell>
        <mxCell id="T_bKocLDF5SG0f0tNBpL-269" value="1" style="text;html=1;align=center;verticalAlign=middle;resizable=0;points=[];autosize=1;strokeColor=none;fillColor=none;" parent="1" vertex="1">
          <mxGeometry x="2178.715728752539" y="1965" width="30" height="30" as="geometry" />
        </mxCell>
        <mxCell id="T_bKocLDF5SG0f0tNBpL-270" value="1" style="text;html=1;align=center;verticalAlign=middle;resizable=0;points=[];autosize=1;strokeColor=none;fillColor=none;" parent="1" vertex="1">
          <mxGeometry x="2178.715728752539" y="2130" width="30" height="30" as="geometry" />
        </mxCell>
        <mxCell id="T_bKocLDF5SG0f0tNBpL-271" value="1" style="text;html=1;align=center;verticalAlign=middle;resizable=0;points=[];autosize=1;strokeColor=none;fillColor=none;" parent="1" vertex="1">
          <mxGeometry x="2178.715728752539" y="2280" width="30" height="30" as="geometry" />
        </mxCell>
        <mxCell id="T_bKocLDF5SG0f0tNBpL-272" value="1" style="text;html=1;align=center;verticalAlign=middle;resizable=0;points=[];autosize=1;strokeColor=none;fillColor=none;" parent="1" vertex="1">
          <mxGeometry x="2178.715728752539" y="2460" width="30" height="30" as="geometry" />
        </mxCell>
        <mxCell id="T_bKocLDF5SG0f0tNBpL-273" value="1" style="text;html=1;align=center;verticalAlign=middle;resizable=0;points=[];autosize=1;strokeColor=none;fillColor=none;" parent="1" vertex="1">
          <mxGeometry x="2178.715728752539" y="2630" width="30" height="30" as="geometry" />
        </mxCell>
        <mxCell id="T_bKocLDF5SG0f0tNBpL-274" value="1" style="text;html=1;align=center;verticalAlign=middle;resizable=0;points=[];autosize=1;strokeColor=none;fillColor=none;" parent="1" vertex="1">
          <mxGeometry x="2178.715728752539" y="2800" width="30" height="30" as="geometry" />
        </mxCell>
        <mxCell id="T_bKocLDF5SG0f0tNBpL-275" value="1" style="text;html=1;align=center;verticalAlign=middle;resizable=0;points=[];autosize=1;strokeColor=none;fillColor=none;" parent="1" vertex="1">
          <mxGeometry x="3263.715728752539" y="1065" width="30" height="30" as="geometry" />
        </mxCell>
        <mxCell id="T_bKocLDF5SG0f0tNBpL-276" value="2" style="text;html=1;align=center;verticalAlign=middle;resizable=0;points=[];autosize=1;strokeColor=none;fillColor=none;" parent="1" vertex="1">
          <mxGeometry x="3258.715728752539" y="1230" width="30" height="30" as="geometry" />
        </mxCell>
        <mxCell id="T_bKocLDF5SG0f0tNBpL-277" value="2" style="text;html=1;align=center;verticalAlign=middle;resizable=0;points=[];autosize=1;strokeColor=none;fillColor=none;" parent="1" vertex="1">
          <mxGeometry x="3258.715728752539" y="1400" width="30" height="30" as="geometry" />
        </mxCell>
        <mxCell id="T_bKocLDF5SG0f0tNBpL-278" style="edgeStyle=orthogonalEdgeStyle;rounded=0;orthogonalLoop=1;jettySize=auto;html=1;exitX=0.5;exitY=1;exitDx=0;exitDy=0;entryX=0;entryY=0.5;entryDx=0;entryDy=0;" parent="1" source="T_bKocLDF5SG0f0tNBpL-279" target="T_bKocLDF5SG0f0tNBpL-217" edge="1">
          <mxGeometry relative="1" as="geometry" />
        </mxCell>
        <mxCell id="T_bKocLDF5SG0f0tNBpL-279" value="ver Contenido" style="ellipse;whiteSpace=wrap;html=1;aspect=fixed;" parent="1" vertex="1">
          <mxGeometry x="4518.715728752539" y="1720" width="130" height="130" as="geometry" />
        </mxCell>
        <mxCell id="T_bKocLDF5SG0f0tNBpL-280" value="2" style="text;html=1;align=center;verticalAlign=middle;resizable=0;points=[];autosize=1;strokeColor=none;fillColor=none;" parent="1" vertex="1">
          <mxGeometry x="3258.715728752539" y="1683" width="30" height="30" as="geometry" />
        </mxCell>
        <mxCell id="T_bKocLDF5SG0f0tNBpL-281" value="2" style="text;html=1;align=center;verticalAlign=middle;resizable=0;points=[];autosize=1;strokeColor=none;fillColor=none;" parent="1" vertex="1">
          <mxGeometry x="3683.715728752539" y="1703" width="30" height="30" as="geometry" />
        </mxCell>
        <mxCell id="T_bKocLDF5SG0f0tNBpL-282" value="2" style="text;html=1;align=center;verticalAlign=middle;resizable=0;points=[];autosize=1;strokeColor=none;fillColor=none;" parent="1" vertex="1">
          <mxGeometry x="3688.715728752539" y="1855" width="30" height="30" as="geometry" />
        </mxCell>
        <mxCell id="T_bKocLDF5SG0f0tNBpL-283" value="visualizar par" style="text;whiteSpace=wrap;html=1;" parent="1" vertex="1">
          <mxGeometry x="1928.7157287525388" y="1460" width="100" height="40" as="geometry" />
        </mxCell>
        <mxCell id="T_bKocLDF5SG0f0tNBpL-284" value="2" style="text;html=1;align=center;verticalAlign=middle;resizable=0;points=[];autosize=1;strokeColor=none;fillColor=none;" parent="1" vertex="1">
          <mxGeometry x="3258.715728752539" y="1830" width="30" height="30" as="geometry" />
        </mxCell>
        <mxCell id="T_bKocLDF5SG0f0tNBpL-285" value="2" style="text;html=1;align=center;verticalAlign=middle;resizable=0;points=[];autosize=1;strokeColor=none;fillColor=none;" parent="1" vertex="1">
          <mxGeometry x="3263.715728752539" y="1980" width="30" height="30" as="geometry" />
        </mxCell>
        <mxCell id="T_bKocLDF5SG0f0tNBpL-286" value="2" style="text;html=1;align=center;verticalAlign=middle;resizable=0;points=[];autosize=1;strokeColor=none;fillColor=none;" parent="1" vertex="1">
          <mxGeometry x="3688.715728752539" y="2008" width="30" height="30" as="geometry" />
        </mxCell>
        <mxCell id="T_bKocLDF5SG0f0tNBpL-287" value="2" style="text;html=1;align=center;verticalAlign=middle;resizable=0;points=[];autosize=1;strokeColor=none;fillColor=none;" parent="1" vertex="1">
          <mxGeometry x="3688.715728752539" y="2150" width="30" height="30" as="geometry" />
        </mxCell>
        <mxCell id="T_bKocLDF5SG0f0tNBpL-288" style="edgeStyle=orthogonalEdgeStyle;rounded=0;orthogonalLoop=1;jettySize=auto;html=1;exitX=0.5;exitY=1;exitDx=0;exitDy=0;entryX=0;entryY=0.5;entryDx=0;entryDy=0;" parent="1" source="T_bKocLDF5SG0f0tNBpL-289" target="T_bKocLDF5SG0f0tNBpL-123" edge="1">
          <mxGeometry relative="1" as="geometry" />
        </mxCell>
        <mxCell id="T_bKocLDF5SG0f0tNBpL-289" value="ver Contenido" style="ellipse;whiteSpace=wrap;html=1;aspect=fixed;" parent="1" vertex="1">
          <mxGeometry x="2398.715728752539" y="1683" width="130" height="130" as="geometry" />
        </mxCell>
        <mxCell id="T_bKocLDF5SG0f0tNBpL-290" value="2" style="text;html=1;align=center;verticalAlign=middle;resizable=0;points=[];autosize=1;strokeColor=none;fillColor=none;" parent="1" vertex="1">
          <mxGeometry x="2878.715728752539" y="1770" width="30" height="30" as="geometry" />
        </mxCell>
        <mxCell id="T_bKocLDF5SG0f0tNBpL-291" value="2" style="text;html=1;align=center;verticalAlign=middle;resizable=0;points=[];autosize=1;strokeColor=none;fillColor=none;" parent="1" vertex="1">
          <mxGeometry x="2878.715728752539" y="2010" width="30" height="30" as="geometry" />
        </mxCell>
        <mxCell id="T_bKocLDF5SG0f0tNBpL-292" value="2" style="text;html=1;align=center;verticalAlign=middle;resizable=0;points=[];autosize=1;strokeColor=none;fillColor=none;" parent="1" vertex="1">
          <mxGeometry x="2598.715728752539" y="1900" width="30" height="30" as="geometry" />
        </mxCell>
        <mxCell id="T_bKocLDF5SG0f0tNBpL-293" value="2" style="text;html=1;align=center;verticalAlign=middle;resizable=0;points=[];autosize=1;strokeColor=none;fillColor=none;" parent="1" vertex="1">
          <mxGeometry x="2598.715728752539" y="1690" width="30" height="30" as="geometry" />
        </mxCell>
        <mxCell id="T_bKocLDF5SG0f0tNBpL-294" value="2" style="text;html=1;align=center;verticalAlign=middle;resizable=0;points=[];autosize=1;strokeColor=none;fillColor=none;" parent="1" vertex="1">
          <mxGeometry x="2448.715728752539" y="1698" width="30" height="30" as="geometry" />
        </mxCell>
        <mxCell id="T_bKocLDF5SG0f0tNBpL-295" value="2" style="text;html=1;align=center;verticalAlign=middle;resizable=0;points=[];autosize=1;strokeColor=none;fillColor=none;" parent="1" vertex="1">
          <mxGeometry x="3688.715728752539" y="2290" width="30" height="30" as="geometry" />
        </mxCell>
        <mxCell id="T_bKocLDF5SG0f0tNBpL-296" value="2" style="text;html=1;align=center;verticalAlign=middle;resizable=0;points=[];autosize=1;strokeColor=none;fillColor=none;" parent="1" vertex="1">
          <mxGeometry x="3688.715728752539" y="2470" width="30" height="30" as="geometry" />
        </mxCell>
        <mxCell id="T_bKocLDF5SG0f0tNBpL-297" value="2" style="text;html=1;align=center;verticalAlign=middle;resizable=0;points=[];autosize=1;strokeColor=none;fillColor=none;" parent="1" vertex="1">
          <mxGeometry x="4568.715728752539" y="1733" width="30" height="30" as="geometry" />
        </mxCell>
        <mxCell id="T_bKocLDF5SG0f0tNBpL-298" value="2" style="text;html=1;align=center;verticalAlign=middle;resizable=0;points=[];autosize=1;strokeColor=none;fillColor=none;" parent="1" vertex="1">
          <mxGeometry x="4718.715728752539" y="1728" width="30" height="30" as="geometry" />
        </mxCell>
        <mxCell id="T_bKocLDF5SG0f0tNBpL-299" value="2" style="text;html=1;align=center;verticalAlign=middle;resizable=0;points=[];autosize=1;strokeColor=none;fillColor=none;" parent="1" vertex="1">
          <mxGeometry x="4718.715728752539" y="1930" width="30" height="30" as="geometry" />
        </mxCell>
        <mxCell id="T_bKocLDF5SG0f0tNBpL-300" value="3" style="text;html=1;align=center;verticalAlign=middle;resizable=0;points=[];autosize=1;strokeColor=none;fillColor=none;" parent="1" vertex="1">
          <mxGeometry x="4998.715728752539" y="1740" width="30" height="30" as="geometry" />
        </mxCell>
        <mxCell id="T_bKocLDF5SG0f0tNBpL-301" value="3" style="text;html=1;align=center;verticalAlign=middle;resizable=0;points=[];autosize=1;strokeColor=none;fillColor=none;" parent="1" vertex="1">
          <mxGeometry x="4998.715728752539" y="1885" width="30" height="30" as="geometry" />
        </mxCell>
        <mxCell id="T_bKocLDF5SG0f0tNBpL-302" value="3" style="text;html=1;align=center;verticalAlign=middle;resizable=0;points=[];autosize=1;strokeColor=none;fillColor=none;" parent="1" vertex="1">
          <mxGeometry x="4998.715728752539" y="2030" width="30" height="30" as="geometry" />
        </mxCell>
        <mxCell id="T_bKocLDF5SG0f0tNBpL-303" value="3" style="text;html=1;align=center;verticalAlign=middle;resizable=0;points=[];autosize=1;strokeColor=none;fillColor=none;" parent="1" vertex="1">
          <mxGeometry x="4998.715728752539" y="2170" width="30" height="30" as="geometry" />
        </mxCell>
        <mxCell id="T_bKocLDF5SG0f0tNBpL-304" value="3" style="text;html=1;align=center;verticalAlign=middle;resizable=0;points=[];autosize=1;strokeColor=none;fillColor=none;" parent="1" vertex="1">
          <mxGeometry x="4998.715728752539" y="2320" width="30" height="30" as="geometry" />
        </mxCell>
        <mxCell id="T_bKocLDF5SG0f0tNBpL-305" value="3" style="text;html=1;align=center;verticalAlign=middle;resizable=0;points=[];autosize=1;strokeColor=none;fillColor=none;" parent="1" vertex="1">
          <mxGeometry x="4998.715728752539" y="2465" width="30" height="30" as="geometry" />
        </mxCell>
        <mxCell id="T_bKocLDF5SG0f0tNBpL-306" value="2" style="text;html=1;align=center;verticalAlign=middle;resizable=0;points=[];autosize=1;strokeColor=none;fillColor=none;" parent="1" vertex="1">
          <mxGeometry x="5383.715728752539" y="1728" width="30" height="30" as="geometry" />
        </mxCell>
        <mxCell id="T_bKocLDF5SG0f0tNBpL-307" value="2" style="text;html=1;align=center;verticalAlign=middle;resizable=0;points=[];autosize=1;strokeColor=none;fillColor=none;" parent="1" vertex="1">
          <mxGeometry x="5383.715728752539" y="1863" width="30" height="30" as="geometry" />
        </mxCell>
        <mxCell id="T_bKocLDF5SG0f0tNBpL-308" value="2" style="text;html=1;align=center;verticalAlign=middle;resizable=0;points=[];autosize=1;strokeColor=none;fillColor=none;" parent="1" vertex="1">
          <mxGeometry x="5383.715728752539" y="2015" width="30" height="30" as="geometry" />
        </mxCell>
        <mxCell id="T_bKocLDF5SG0f0tNBpL-309" value="2" style="text;html=1;align=center;verticalAlign=middle;resizable=0;points=[];autosize=1;strokeColor=none;fillColor=none;" parent="1" vertex="1">
          <mxGeometry x="5378.715728752539" y="1440" width="30" height="30" as="geometry" />
        </mxCell>
        <mxCell id="T_bKocLDF5SG0f0tNBpL-310" value="2" style="text;html=1;align=center;verticalAlign=middle;resizable=0;points=[];autosize=1;strokeColor=none;fillColor=none;" parent="1" vertex="1">
          <mxGeometry x="5378.715728752539" y="1270" width="30" height="30" as="geometry" />
        </mxCell>
        <mxCell id="T_bKocLDF5SG0f0tNBpL-311" value="1" style="text;html=1;align=center;verticalAlign=middle;resizable=0;points=[];autosize=1;strokeColor=none;fillColor=none;" parent="1" vertex="1">
          <mxGeometry x="5383.715728752539" y="1110" width="30" height="30" as="geometry" />
        </mxCell>
        <mxCell id="T_bKocLDF5SG0f0tNBpL-312" value="2" style="text;html=1;align=center;verticalAlign=middle;resizable=0;points=[];autosize=1;strokeColor=none;fillColor=none;" parent="1" vertex="1">
          <mxGeometry x="5803.715728752539" y="1750" width="30" height="30" as="geometry" />
        </mxCell>
        <mxCell id="T_bKocLDF5SG0f0tNBpL-313" value="3" style="text;html=1;align=center;verticalAlign=middle;resizable=0;points=[];autosize=1;strokeColor=none;fillColor=none;" parent="1" vertex="1">
          <mxGeometry x="5808.715728752539" y="1893" width="30" height="30" as="geometry" />
        </mxCell>
        <mxCell id="T_bKocLDF5SG0f0tNBpL-314" value="3" style="text;html=1;align=center;verticalAlign=middle;resizable=0;points=[];autosize=1;strokeColor=none;fillColor=none;" parent="1" vertex="1">
          <mxGeometry x="5808.715728752539" y="2040" width="30" height="30" as="geometry" />
        </mxCell>
        <mxCell id="T_bKocLDF5SG0f0tNBpL-315" value="3" style="text;html=1;align=center;verticalAlign=middle;resizable=0;points=[];autosize=1;strokeColor=none;fillColor=none;" parent="1" vertex="1">
          <mxGeometry x="5808.715728752539" y="2200" width="30" height="30" as="geometry" />
        </mxCell>
        <mxCell id="T_bKocLDF5SG0f0tNBpL-316" value="3" style="text;html=1;align=center;verticalAlign=middle;resizable=0;points=[];autosize=1;strokeColor=none;fillColor=none;" parent="1" vertex="1">
          <mxGeometry x="5808.715728752539" y="2360" width="30" height="30" as="geometry" />
        </mxCell>
        <mxCell id="T_bKocLDF5SG0f0tNBpL-317" value="3" style="text;html=1;align=center;verticalAlign=middle;resizable=0;points=[];autosize=1;strokeColor=none;fillColor=none;" parent="1" vertex="1">
          <mxGeometry x="5808.715728752539" y="2505" width="30" height="30" as="geometry" />
        </mxCell>
        <mxCell id="T_bKocLDF5SG0f0tNBpL-318" value="3" style="text;html=1;align=center;verticalAlign=middle;resizable=0;points=[];autosize=1;strokeColor=none;fillColor=none;" parent="1" vertex="1">
          <mxGeometry x="5808.715728752539" y="2670" width="30" height="30" as="geometry" />
        </mxCell>
        <mxCell id="T_bKocLDF5SG0f0tNBpL-319" value="3" style="text;html=1;align=center;verticalAlign=middle;resizable=0;points=[];autosize=1;strokeColor=none;fillColor=none;" parent="1" vertex="1">
          <mxGeometry x="5803.715728752539" y="2820" width="30" height="30" as="geometry" />
        </mxCell>
        <mxCell id="T_bKocLDF5SG0f0tNBpL-320" value="3" style="text;html=1;align=center;verticalAlign=middle;resizable=0;points=[];autosize=1;strokeColor=none;fillColor=none;" parent="1" vertex="1">
          <mxGeometry x="5803.715728752539" y="2960" width="30" height="30" as="geometry" />
        </mxCell>
        <mxCell id="T_bKocLDF5SG0f0tNBpL-321" value="3" style="text;html=1;align=center;verticalAlign=middle;resizable=0;points=[];autosize=1;strokeColor=none;fillColor=none;" parent="1" vertex="1">
          <mxGeometry x="5803.715728752539" y="3120" width="30" height="30" as="geometry" />
        </mxCell>
        <mxCell id="T_bKocLDF5SG0f0tNBpL-322" value="3" style="text;html=1;align=center;verticalAlign=middle;resizable=0;points=[];autosize=1;strokeColor=none;fillColor=none;" parent="1" vertex="1">
          <mxGeometry x="5808.715728752539" y="3290" width="30" height="30" as="geometry" />
        </mxCell>
        <mxCell id="T_bKocLDF5SG0f0tNBpL-323" value="3" style="text;html=1;align=center;verticalAlign=middle;resizable=0;points=[];autosize=1;strokeColor=none;fillColor=none;" parent="1" vertex="1">
          <mxGeometry x="5808.715728752539" y="3440" width="30" height="30" as="geometry" />
        </mxCell>
        <mxCell id="T_bKocLDF5SG0f0tNBpL-324" value="3" style="text;html=1;align=center;verticalAlign=middle;resizable=0;points=[];autosize=1;strokeColor=none;fillColor=none;" parent="1" vertex="1">
          <mxGeometry x="5808.715728752539" y="3600" width="30" height="30" as="geometry" />
        </mxCell>
        <mxCell id="T_bKocLDF5SG0f0tNBpL-325" value="2" style="text;html=1;align=center;verticalAlign=middle;resizable=0;points=[];autosize=1;strokeColor=none;fillColor=none;" parent="1" vertex="1">
          <mxGeometry x="5803.715728752539" y="3770" width="30" height="30" as="geometry" />
        </mxCell>
        <mxCell id="Albroaq3FVYr9AdbzQTs-3" style="edgeStyle=orthogonalEdgeStyle;rounded=0;orthogonalLoop=1;jettySize=auto;html=1;exitX=1;exitY=0.5;exitDx=0;exitDy=0;entryX=0.5;entryY=0.5;entryDx=0;entryDy=0;entryPerimeter=0;endArrow=none;endFill=0;" parent="1" source="jSK1wQsOqo6iw2RfOeqB-4" target="jSK1wQsOqo6iw2RfOeqB-6" edge="1">
          <mxGeometry relative="1" as="geometry" />
        </mxCell>
        <mxCell id="Albroaq3FVYr9AdbzQTs-9" style="edgeStyle=orthogonalEdgeStyle;rounded=0;orthogonalLoop=1;jettySize=auto;html=1;exitX=0.5;exitY=0;exitDx=0;exitDy=0;exitPerimeter=0;entryX=0.5;entryY=0.5;entryDx=0;entryDy=0;entryPerimeter=0;" parent="1" source="jSK1wQsOqo6iw2RfOeqB-8" target="jSK1wQsOqo6iw2RfOeqB-2" edge="1">
          <mxGeometry relative="1" as="geometry">
            <Array as="points">
              <mxPoint x="-930" y="1040" />
              <mxPoint x="-930" y="-40" />
            </Array>
          </mxGeometry>
        </mxCell>
        <mxCell id="Albroaq3FVYr9AdbzQTs-18" value="Identificar Usuario" style="ellipse;whiteSpace=wrap;html=1;aspect=fixed;" parent="1" vertex="1">
          <mxGeometry x="-640" y="110" width="80" height="80" as="geometry" />
        </mxCell>
        <mxCell id="Albroaq3FVYr9AdbzQTs-30" style="edgeStyle=orthogonalEdgeStyle;rounded=0;orthogonalLoop=1;jettySize=auto;html=1;exitX=0.5;exitY=1;exitDx=0;exitDy=0;" parent="1" source="Albroaq3FVYr9AdbzQTs-23" target="Albroaq3FVYr9AdbzQTs-28" edge="1">
          <mxGeometry relative="1" as="geometry" />
        </mxCell>
        <mxCell id="Albroaq3FVYr9AdbzQTs-23" value="Mostrar Pagina Principal" style="ellipse;whiteSpace=wrap;html=1;aspect=fixed;" parent="1" vertex="1">
          <mxGeometry x="-720" y="400" width="80" height="80" as="geometry" />
        </mxCell>
        <mxCell id="Albroaq3FVYr9AdbzQTs-32" style="edgeStyle=orthogonalEdgeStyle;rounded=0;orthogonalLoop=1;jettySize=auto;html=1;exitX=0.5;exitY=1;exitDx=0;exitDy=0;entryX=0.5;entryY=0;entryDx=0;entryDy=0;" parent="1" source="Albroaq3FVYr9AdbzQTs-28" target="Albroaq3FVYr9AdbzQTs-31" edge="1">
          <mxGeometry relative="1" as="geometry" />
        </mxCell>
        <mxCell id="Albroaq3FVYr9AdbzQTs-28" value="Solicitar opcion FORO" style="ellipse;whiteSpace=wrap;html=1;aspect=fixed;" parent="1" vertex="1">
          <mxGeometry x="-720" y="550" width="80" height="80" as="geometry" />
        </mxCell>
        <mxCell id="Albroaq3FVYr9AdbzQTs-37" style="edgeStyle=orthogonalEdgeStyle;rounded=0;orthogonalLoop=1;jettySize=auto;html=1;entryX=0.5;entryY=0;entryDx=0;entryDy=0;" parent="1" source="Albroaq3FVYr9AdbzQTs-31" target="Albroaq3FVYr9AdbzQTs-35" edge="1">
          <mxGeometry relative="1" as="geometry">
            <Array as="points">
              <mxPoint x="-727" y="720" />
            </Array>
          </mxGeometry>
        </mxCell>
        <mxCell id="Albroaq3FVYr9AdbzQTs-31" value="Mostrar Foro" style="ellipse;whiteSpace=wrap;html=1;aspect=fixed;" parent="1" vertex="1">
          <mxGeometry x="-720" y="680" width="80" height="80" as="geometry" />
        </mxCell>
        <mxCell id="Albroaq3FVYr9AdbzQTs-34" value="Solicitar Voto" style="ellipse;whiteSpace=wrap;html=1;aspect=fixed;" parent="1" vertex="1">
          <mxGeometry x="-660" y="775" width="80" height="80" as="geometry" />
        </mxCell>
        <mxCell id="Albroaq3FVYr9AdbzQTs-35" value="Solicitar Voto" style="ellipse;whiteSpace=wrap;html=1;aspect=fixed;" parent="1" vertex="1">
          <mxGeometry x="-767.5" y="775" width="80" height="80" as="geometry" />
        </mxCell>
        <mxCell id="T_bKocLDF5SG0f0tNBpL-333" value="Solicitar opcion PÃ¡gina principal" style="ellipse;whiteSpace=wrap;html=1;aspect=fixed;" parent="1" vertex="1">
          <mxGeometry x="-570" y="775" width="80" height="80" as="geometry" />
        </mxCell>
        <mxCell id="Albroaq3FVYr9AdbzQTs-40" style="edgeStyle=orthogonalEdgeStyle;rounded=0;orthogonalLoop=1;jettySize=auto;html=1;exitX=1;exitY=0.5;exitDx=0;exitDy=0;entryX=0.5;entryY=0;entryDx=0;entryDy=0;" parent="1" source="Albroaq3FVYr9AdbzQTs-31" target="Albroaq3FVYr9AdbzQTs-34" edge="1">
          <mxGeometry relative="1" as="geometry" />
        </mxCell>
        <mxCell id="T_bKocLDF5SG0f0tNBpL-336" style="edgeStyle=orthogonalEdgeStyle;rounded=0;orthogonalLoop=1;jettySize=auto;html=1;exitX=0.5;exitY=1;exitDx=0;exitDy=0;entryX=0.5;entryY=0.5;entryDx=0;entryDy=0;entryPerimeter=0;endArrow=none;endFill=0;" parent="1" source="Albroaq3FVYr9AdbzQTs-35" target="jSK1wQsOqo6iw2RfOeqB-6" edge="1">
          <mxGeometry relative="1" as="geometry">
            <Array as="points">
              <mxPoint x="-727" y="875" />
              <mxPoint x="-360" y="875" />
              <mxPoint x="-360" y="-40" />
            </Array>
          </mxGeometry>
        </mxCell>
        <mxCell id="T_bKocLDF5SG0f0tNBpL-334" style="edgeStyle=orthogonalEdgeStyle;rounded=0;orthogonalLoop=1;jettySize=auto;html=1;exitX=1;exitY=0.5;exitDx=0;exitDy=0;entryX=0.5;entryY=0;entryDx=0;entryDy=0;" parent="1" source="Albroaq3FVYr9AdbzQTs-31" target="T_bKocLDF5SG0f0tNBpL-333" edge="1">
          <mxGeometry relative="1" as="geometry" />
        </mxCell>
        <mxCell id="T_bKocLDF5SG0f0tNBpL-337" style="edgeStyle=orthogonalEdgeStyle;rounded=0;orthogonalLoop=1;jettySize=auto;html=1;exitX=0.5;exitY=1;exitDx=0;exitDy=0;entryX=0.5;entryY=0.5;entryDx=0;entryDy=0;entryPerimeter=0;endArrow=none;endFill=0;" parent="1" source="Albroaq3FVYr9AdbzQTs-34" target="jSK1wQsOqo6iw2RfOeqB-6" edge="1">
          <mxGeometry relative="1" as="geometry">
            <Array as="points">
              <mxPoint x="-620" y="875" />
              <mxPoint x="-340" y="875" />
              <mxPoint x="-340" y="-40" />
            </Array>
          </mxGeometry>
        </mxCell>
        <mxCell id="Albroaq3FVYr9AdbzQTs-43" style="edgeStyle=orthogonalEdgeStyle;rounded=0;orthogonalLoop=1;jettySize=auto;html=1;exitX=0.5;exitY=1;exitDx=0;exitDy=0;" parent="1" source="Albroaq3FVYr9AdbzQTs-41" target="T_bKocLDF5SG0f0tNBpL-340" edge="1">
          <mxGeometry relative="1" as="geometry" />
        </mxCell>
        <mxCell id="Albroaq3FVYr9AdbzQTs-44" style="edgeStyle=orthogonalEdgeStyle;rounded=0;orthogonalLoop=1;jettySize=auto;html=1;exitX=1;exitY=0.5;exitDx=0;exitDy=0;entryX=0.5;entryY=0;entryDx=0;entryDy=0;" parent="1" source="Albroaq3FVYr9AdbzQTs-41" target="T_bKocLDF5SG0f0tNBpL-341" edge="1">
          <mxGeometry relative="1" as="geometry" />
        </mxCell>
        <mxCell id="Albroaq3FVYr9AdbzQTs-45" style="edgeStyle=orthogonalEdgeStyle;rounded=0;orthogonalLoop=1;jettySize=auto;html=1;exitX=0;exitY=0.5;exitDx=0;exitDy=0;" parent="1" source="Albroaq3FVYr9AdbzQTs-41" target="T_bKocLDF5SG0f0tNBpL-339" edge="1">
          <mxGeometry relative="1" as="geometry" />
        </mxCell>
        <mxCell id="Albroaq3FVYr9AdbzQTs-41" value="Mostrar PÃ¡gina perfil" style="ellipse;whiteSpace=wrap;html=1;aspect=fixed;" parent="1" vertex="1">
          <mxGeometry x="-960" y="1170" width="80" height="80" as="geometry" />
        </mxCell>
        <mxCell id="T_bKocLDF5SG0f0tNBpL-339" value="Solicitar opciÃ³n de control de emisiÃ³n" style="ellipse;whiteSpace=wrap;html=1;aspect=fixed;" parent="1" vertex="1">
          <mxGeometry x="-1050" y="1285" width="80" height="80" as="geometry" />
        </mxCell>
        <mxCell id="T_bKocLDF5SG0f0tNBpL-340" value="Solicitar opcion de errores" style="ellipse;whiteSpace=wrap;html=1;aspect=fixed;" parent="1" vertex="1">
          <mxGeometry x="-960" y="1286" width="80" height="80" as="geometry" />
        </mxCell>
        <mxCell id="T_bKocLDF5SG0f0tNBpL-341" value="Solicitar opcion armado parrilla horaria" style="ellipse;whiteSpace=wrap;html=1;aspect=fixed;" parent="1" vertex="1">
          <mxGeometry x="-872" y="1285" width="82" height="82" as="geometry" />
        </mxCell>
        <mxCell id="T_bKocLDF5SG0f0tNBpL-346" style="edgeStyle=orthogonalEdgeStyle;rounded=0;orthogonalLoop=1;jettySize=auto;html=1;exitX=0;exitY=1;exitDx=0;exitDy=0;exitPerimeter=0;endArrow=none;endFill=0;" parent="1" source="T_bKocLDF5SG0f0tNBpL-342" target="T_bKocLDF5SG0f0tNBpL-345" edge="1">
          <mxGeometry relative="1" as="geometry">
            <Array as="points">
              <mxPoint x="-1110" y="1090" />
              <mxPoint x="-1110" y="1117" />
              <mxPoint x="-1170" y="1117" />
              <mxPoint x="-1170" y="1185" />
            </Array>
          </mxGeometry>
        </mxCell>
        <mxCell id="T_bKocLDF5SG0f0tNBpL-342" value="Editor" style="shape=umlActor;verticalLabelPosition=bottom;verticalAlign=top;html=1;outlineConnect=0;" parent="1" vertex="1">
          <mxGeometry x="-1090" y="1030" width="30" height="60" as="geometry" />
        </mxCell>
        <mxCell id="T_bKocLDF5SG0f0tNBpL-354" style="edgeStyle=orthogonalEdgeStyle;rounded=0;orthogonalLoop=1;jettySize=auto;html=1;exitX=0.5;exitY=1;exitDx=0;exitDy=0;" parent="1" source="T_bKocLDF5SG0f0tNBpL-345" target="T_bKocLDF5SG0f0tNBpL-351" edge="1">
          <mxGeometry relative="1" as="geometry" />
        </mxCell>
        <mxCell id="T_bKocLDF5SG0f0tNBpL-355" style="edgeStyle=orthogonalEdgeStyle;rounded=0;orthogonalLoop=1;jettySize=auto;html=1;exitX=0.5;exitY=1;exitDx=0;exitDy=0;entryX=0.5;entryY=0;entryDx=0;entryDy=0;" parent="1" source="T_bKocLDF5SG0f0tNBpL-345" target="T_bKocLDF5SG0f0tNBpL-347" edge="1">
          <mxGeometry relative="1" as="geometry" />
        </mxCell>
        <mxCell id="T_bKocLDF5SG0f0tNBpL-356" style="edgeStyle=orthogonalEdgeStyle;rounded=0;orthogonalLoop=1;jettySize=auto;html=1;exitX=0.5;exitY=1;exitDx=0;exitDy=0;entryX=0.5;entryY=0;entryDx=0;entryDy=0;" parent="1" source="T_bKocLDF5SG0f0tNBpL-345" target="T_bKocLDF5SG0f0tNBpL-348" edge="1">
          <mxGeometry relative="1" as="geometry" />
        </mxCell>
        <mxCell id="T_bKocLDF5SG0f0tNBpL-357" style="edgeStyle=orthogonalEdgeStyle;rounded=0;orthogonalLoop=1;jettySize=auto;html=1;exitX=0.5;exitY=1;exitDx=0;exitDy=0;" parent="1" source="T_bKocLDF5SG0f0tNBpL-345" target="T_bKocLDF5SG0f0tNBpL-350" edge="1">
          <mxGeometry relative="1" as="geometry" />
        </mxCell>
        <mxCell id="T_bKocLDF5SG0f0tNBpL-345" value="Mostrar PÃ¡gina perfil" style="ellipse;whiteSpace=wrap;html=1;aspect=fixed;" parent="1" vertex="1">
          <mxGeometry x="-1270" y="1145" width="80" height="80" as="geometry" />
        </mxCell>
        <mxCell id="T_bKocLDF5SG0f0tNBpL-347" value="Solicitar opciÃ³n de subida contenido" style="ellipse;whiteSpace=wrap;html=1;aspect=fixed;" parent="1" vertex="1">
          <mxGeometry x="-1360" y="1280" width="80" height="80" as="geometry" />
        </mxCell>
        <mxCell id="T_bKocLDF5SG0f0tNBpL-348" value="Solicitar opcion de estado y aprobaciÃ³n" style="ellipse;whiteSpace=wrap;html=1;aspect=fixed;" parent="1" vertex="1">
          <mxGeometry x="-1270" y="1280" width="80" height="80" as="geometry" />
        </mxCell>
        <mxCell id="T_bKocLDF5SG0f0tNBpL-350" value="Solicitar opciÃ³n parrila semanal" style="ellipse;whiteSpace=wrap;html=1;aspect=fixed;" parent="1" vertex="1">
          <mxGeometry x="-1180" y="1280" width="80" height="80" as="geometry" />
        </mxCell>
        <mxCell id="T_bKocLDF5SG0f0tNBpL-358" style="edgeStyle=orthogonalEdgeStyle;rounded=0;orthogonalLoop=1;jettySize=auto;html=1;exitX=0.5;exitY=1;exitDx=0;exitDy=0;" parent="1" source="T_bKocLDF5SG0f0tNBpL-351" target="T_bKocLDF5SG0f0tNBpL-352" edge="1">
          <mxGeometry relative="1" as="geometry">
            <Array as="points">
              <mxPoint x="-1410" y="1370" />
              <mxPoint x="-1490" y="1370" />
            </Array>
          </mxGeometry>
        </mxCell>
        <mxCell id="T_bKocLDF5SG0f0tNBpL-359" style="edgeStyle=orthogonalEdgeStyle;rounded=0;orthogonalLoop=1;jettySize=auto;html=1;exitX=0.5;exitY=1;exitDx=0;exitDy=0;entryX=0.5;entryY=0;entryDx=0;entryDy=0;" parent="1" source="T_bKocLDF5SG0f0tNBpL-351" target="T_bKocLDF5SG0f0tNBpL-353" edge="1">
          <mxGeometry relative="1" as="geometry" />
        </mxCell>
        <mxCell id="T_bKocLDF5SG0f0tNBpL-351" value="Solicitar opciÃ³n gestiÃ³n multimedia" style="ellipse;whiteSpace=wrap;html=1;aspect=fixed;" parent="1" vertex="1">
          <mxGeometry x="-1450" y="1280" width="80" height="80" as="geometry" />
        </mxCell>
        <mxCell id="T_bKocLDF5SG0f0tNBpL-352" value="Solicitar opciÃ³n audio" style="ellipse;whiteSpace=wrap;html=1;aspect=fixed;" parent="1" vertex="1">
          <mxGeometry x="-1540" y="1385" width="80" height="80" as="geometry" />
        </mxCell>
        <mxCell id="T_bKocLDF5SG0f0tNBpL-353" value="Solicitar opciÃ³n programa" style="ellipse;whiteSpace=wrap;html=1;aspect=fixed;" parent="1" vertex="1">
          <mxGeometry x="-1450" y="1385" width="80" height="80" as="geometry" />
        </mxCell>
      </root>
    </mxGraphModel>
  </diagram>
</mxfile>
